<?xml version="1.0" encoding="utf-8" standalone="no"?>
<!DOCTYPE svg PUBLIC "-//W3C//DTD SVG 1.1//EN"
  "http://www.w3.org/Graphics/SVG/1.1/DTD/svg11.dtd">
<!-- Created with matplotlib (https://matplotlib.org/) -->
<svg height="468pt" version="1.1" viewBox="0 0 1728 468" width="1728pt" xmlns="http://www.w3.org/2000/svg" xmlns:xlink="http://www.w3.org/1999/xlink">
 <defs>
  <style type="text/css">
*{stroke-linecap:butt;stroke-linejoin:round;}
  </style>
 </defs>
 <g id="figure_1">
  <g id="patch_1">
   <path d="M 0 468 
L 1728 468 
L 1728 0 
L 0 0 
z
" style="fill:#ffffff;"/>
  </g>
  <g id="axes_1">
   <g id="patch_2">
    <path d="M 86.4 439.92 
L 863.248696 439.92 
L 863.248696 81.9 
L 86.4 81.9 
z
" style="fill:#ffffff;"/>
   </g>
   <g id="matplotlib.axis_1">
    <g id="xtick_1">
     <g id="text_1">
      <!-- \textbf{LR} -->
      <defs>
       <path d="M 23.796875 10.09375 
L 23.796875 64.21875 
C 23.796875 67.390625 23.09375 69 19 69 
L 13.90625 69 
C 10.296875 69 9.09375 67.890625 9.09375 64.21875 
L 9.09375 4.796875 
C 9.09375 1.1875 10.203125 0 13.90625 0 
L 48.59375 0 
C 52.40625 0 53.40625 1.296875 53.40625 4.796875 
L 53.40625 5.6875 
C 53.40625 8 53.296875 10.484375 48.703125 10.484375 
z
" id="CMSSBX10-76"/>
       <path d="M 48.296875 31.6875 
C 54.59375 33.1875 64.09375 36.984375 64.09375 49.34375 
C 64.09375 69 42.40625 69 37.90625 69 
L 13.90625 69 
C 10.296875 69 9.09375 67.890625 9.09375 64.1875 
L 9.09375 4.765625 
C 9.09375 1.1875 10.203125 0 13.90625 0 
L 18.703125 0 
C 22.5 0 23.5 1.296875 23.5 4.765625 
L 23.5 30.796875 
L 34.59375 30.796875 
L 51 2.390625 
C 52.40625 0 53.5 0 55.703125 0 
L 61.59375 0 
C 63.59375 0 65.296875 0 65.296875 2.984375 
z
M 23.5 38 
L 23.5 60.390625 
L 36.5 60.390625 
C 48.09375 60.390625 50.203125 55.8125 50.203125 49.234375 
C 50.203125 43.375 48.796875 38 36.5 38 
z
" id="CMSSBX10-82"/>
      </defs>
      <g style="fill:#262626;" transform="translate(143.688659 461.448845)scale(0.21 -0.21)">
       <use transform="scale(0.996264)" xlink:href="#CMSSBX10-76"/>
       <use transform="translate(57.838982 0)scale(0.996264)" xlink:href="#CMSSBX10-82"/>
      </g>
     </g>
    </g>
    <g id="xtick_2">
     <g id="text_2">
      <!-- \textbf{KM} -->
      <defs>
       <path d="M 42.09375 40.25 
L 68.40625 64.796875 
C 69.59375 65.890625 69.59375 66.484375 69.59375 66.890625 
C 69.59375 69 67.59375 69 66.203125 69 
L 60.09375 69 
C 58.40625 69 56.40625 69 54.296875 66.984375 
L 22.09375 36.78125 
L 22.09375 64.203125 
C 22.09375 67.390625 21.40625 69 17.296875 69 
L 13.90625 69 
C 10.296875 69 9.09375 67.890625 9.09375 64.203125 
L 9.09375 4.78125 
C 9.09375 1.1875 10.203125 0 13.90625 0 
L 17.296875 0 
C 21.09375 0 22.09375 1.296875 22.09375 4.78125 
L 22.09375 21.46875 
L 33.203125 31.90625 
L 55.59375 2.09375 
C 57.203125 0 58.703125 0 60.59375 0 
L 66.59375 0 
C 68.703125 0 70.09375 0 70.09375 2.890625 
z
" id="CMSSBX10-75"/>
       <path d="M 55.5 32.5 
C 53.40625 27.4375 49.703125 18.296875 48.90625 14.8125 
L 48.796875 14.8125 
C 47.90625 18.390625 43.796875 28.234375 41.703125 33.5 
L 28.90625 64.90625 
C 27.203125 69 24 69 22.203125 69 
L 13.90625 69 
C 10.296875 69 9.09375 67.890625 9.09375 64.203125 
L 9.09375 4.78125 
C 9.09375 1.1875 10.203125 0 13.90625 0 
L 16.59375 0 
C 20.40625 0 21.40625 1.296875 21.40625 4.78125 
L 21.40625 56.15625 
L 21.5 56.15625 
C 22.59375 51.6875 27.09375 40.65625 29.5 34.78125 
L 41.09375 6.46875 
C 42.90625 2.1875 45.296875 2.1875 48.703125 2.1875 
C 52.09375 2.1875 54.5 2.1875 56.296875 6.46875 
L 69.09375 37.671875 
C 70.09375 40.0625 75.5 53.578125 76.203125 56.15625 
L 76.296875 56.15625 
L 76.296875 4.78125 
C 76.296875 1.59375 77 0 81.09375 0 
L 83.796875 0 
C 87.59375 0 88.59375 1.296875 88.59375 4.78125 
L 88.59375 64.203125 
C 88.59375 67.390625 87.90625 69 83.796875 69 
L 75.40625 69 
C 72.90625 69 70.40625 68.796875 68.703125 64.703125 
z
" id="CMSSBX10-77"/>
      </defs>
      <g style="fill:#262626;" transform="translate(229.668669 461.448845)scale(0.21 -0.21)">
       <use transform="scale(0.996264)" xlink:href="#CMSSBX10-75"/>
       <use transform="translate(76.103923 0)scale(0.996264)" xlink:href="#CMSSBX10-77"/>
      </g>
     </g>
    </g>
    <g id="xtick_3">
     <g id="text_3">
      <!-- \textbf{PR} -->
      <defs>
       <path d="M 23.796875 27 
L 39 27 
C 54.703125 27 64.09375 33.59375 64.09375 47.6875 
C 64.09375 62.484375 54.296875 69 38.90625 69 
L 13.90625 69 
C 10.296875 69 9.09375 67.890625 9.09375 64.1875 
L 9.09375 4.8125 
C 9.09375 1.1875 10.203125 0 13.90625 0 
L 19 0 
C 22.796875 0 23.796875 1.296875 23.796875 4.8125 
z
M 35.796875 60.390625 
C 48.90625 60.390625 50.203125 54.53125 50.203125 47.6875 
C 50.203125 41.140625 49.09375 34.890625 35.703125 34.890625 
L 23.5 34.890625 
L 23.5 60.390625 
z
" id="CMSSBX10-80"/>
      </defs>
      <g style="fill:#262626;" transform="translate(323.959236 461.448845)scale(0.21 -0.21)">
       <use transform="scale(0.996264)" xlink:href="#CMSSBX10-80"/>
       <use transform="translate(70.015609 0)scale(0.996264)" xlink:href="#CMSSBX10-82"/>
      </g>
     </g>
    </g>
    <g id="xtick_4">
     <g id="text_4">
      <!-- \textbf{CC} -->
      <defs>
       <path d="M 64 14.328125 
C 64 15.140625 63.296875 15.546875 62.90625 15.546875 
C 60.5 15.546875 57.59375 9 43.5 9 
C 25.90625 9 20.90625 19.875 20.90625 34.984375 
C 20.90625 50 26.296875 60.890625 42.703125 60.890625 
C 51.59375 60.890625 56.296875 57.359375 59 55.140625 
C 59.59375 54.640625 59.90625 54.234375 60.59375 54.234375 
C 61 54.234375 61.5 54.734375 61.59375 55.140625 
L 63.59375 66.296875 
C 63.703125 66.6875 63.59375 67.09375 62.796875 67.390625 
C 56.90625 69.59375 50.796875 71 43 71 
C 18.59375 71 6.09375 59.078125 6.09375 35.09375 
C 6.09375 10.40625 18.796875 -1 43.09375 -1 
C 51.59375 -1 56.90625 0.1875 64.203125 4.6875 
C 65 5.1875 64.796875 5.890625 64.796875 5.890625 
z
" id="CMSSBX10-67"/>
      </defs>
      <g style="fill:#262626;" transform="translate(414.733797 461.448845)scale(0.21 -0.21)">
       <use transform="scale(0.996264)" xlink:href="#CMSSBX10-67"/>
       <use transform="translate(70.015609 0)scale(0.996264)" xlink:href="#CMSSBX10-67"/>
      </g>
     </g>
    </g>
    <g id="xtick_5">
     <g id="text_5">
      <!-- \textbf{WA} -->
      <defs>
       <path d="M 101 64.203125 
C 101.40625 65.59375 101.40625 66 101.40625 66.09375 
C 101.40625 69 98.703125 69 97.296875 69 
L 95.203125 69 
C 93.203125 69 90.40625 69 89.203125 64.609375 
L 78.59375 25.453125 
C 77.203125 20.375 76.296875 17.09375 75.40625 12.71875 
L 75.296875 12.71875 
C 74.796875 15.40625 74.796875 15.609375 72.40625 24.359375 
L 61.59375 64.609375 
C 60.5 68.484375 58.5 69 55.59375 69 
L 49 69 
C 46.90625 69 44.09375 69 42.90625 64.609375 
L 34.09375 32 
L 31.59375 22.171875 
C 30.5 17.5 29.703125 14.3125 29.5 12.71875 
L 29.40625 12.71875 
C 28.59375 17.890625 26.203125 26.640625 24.5 32.90625 
L 15.90625 64.703125 
C 14.703125 69 11.796875 69 9.90625 69 
L 6.5 69 
C 5.09375 69 2.40625 69 2.40625 66.09375 
C 2.40625 66 2.40625 65.59375 2.796875 64.203125 
L 19.203125 4.171875 
C 20.296875 0 23.09375 0 25.203125 0 
L 31.796875 0 
C 33.90625 0 36.703125 0 37.90625 4.578125 
L 48.40625 43.4375 
C 49.90625 48.796875 50.59375 51.578125 51.59375 56.359375 
L 51.703125 56.359375 
C 52.90625 50.59375 53.5 48.109375 55.296875 41.640625 
L 65.5 4.171875 
C 66.59375 0 69.40625 0 71.40625 0 
L 78.59375 0 
C 80.703125 0 83.5 0 84.59375 4.171875 
z
" id="CMSSBX10-87"/>
       <path d="M 47.40625 64.71875 
C 45.90625 69 43 69 41 69 
L 32.203125 69 
C 30.203125 69 27.296875 69 25.796875 64.71875 
L 4.703125 4.671875 
C 4.203125 3.375 4.203125 3.1875 4.203125 2.6875 
C 4.203125 0 6.703125 0 8.09375 0 
L 11.703125 0 
C 13.5 0 16.59375 0 18 3.984375 
L 21.90625 15 
L 49.59375 15 
L 53 5.46875 
C 54.203125 2 54.90625 0 59.703125 0 
L 65.09375 0 
C 66.5 0 69 0 69 2.6875 
C 69 3.1875 69 3.375 68.5 4.671875 
z
M 32.09375 44.65625 
C 33.59375 49.015625 34.90625 52.796875 35.703125 56.375 
L 35.796875 56.375 
C 36.296875 53.984375 36.296875 53.78125 37.09375 51.5 
L 46.59375 23.59375 
L 24.90625 23.59375 
z
" id="CMSSBX10-65"/>
      </defs>
      <g style="fill:#262626;" transform="translate(502.631626 461.448845)scale(0.21 -0.21)">
       <use transform="scale(0.996264)" xlink:href="#CMSSBX10-87"/>
       <use transform="translate(94.368865 0)scale(0.996264)" xlink:href="#CMSSBX10-65"/>
      </g>
     </g>
    </g>
    <g id="xtick_6">
     <g id="text_6">
      <!-- \textbf{TPCH} -->
      <defs>
       <path d="M 29.296875 58.296875 
L 29.296875 4.765625 
C 29.296875 1.1875 30.40625 0 34.09375 0 
L 39.203125 0 
C 43 0 44 1.296875 44 4.765625 
L 44 58.296875 
C 48.40625 58.296875 59.59375 57.984375 64 57.984375 
C 66.796875 57.984375 69.203125 57.984375 69.203125 62.796875 
L 69.203125 63.59375 
C 69.203125 66.796875 68.5 68.390625 64.40625 68.390625 
L 8.796875 68.390625 
C 5.203125 68.390625 4 67.296875 4 63.59375 
L 4 62.796875 
C 4 57.984375 6.40625 57.984375 9.203125 57.984375 
z
" id="CMSSBX10-84"/>
       <path d="M 70.203125 64.1875 
C 70.203125 67.390625 69.5 69 65.40625 69 
L 60.296875 69 
C 56.5 69 55.5 67.6875 55.5 64.1875 
L 55.5 40.390625 
L 23.796875 40.390625 
L 23.796875 64.1875 
C 23.796875 67.390625 23.09375 69 19 69 
L 13.90625 69 
C 10.296875 69 9.09375 67.890625 9.09375 64.1875 
L 9.09375 4.75 
C 9.09375 1.1875 10.203125 0 13.90625 0 
L 19 0 
C 22.796875 0 23.796875 1.296875 23.796875 4.75 
L 23.796875 31 
L 55.5 31 
L 55.5 4.75 
C 55.5 1.59375 56.203125 0 60.296875 0 
L 65.40625 0 
C 69.203125 0 70.203125 1.296875 70.203125 4.75 
z
" id="CMSSBX10-72"/>
      </defs>
      <g style="fill:#262626;" transform="translate(580.301096 461.448845)scale(0.21 -0.21)">
       <use transform="scale(0.996264)" xlink:href="#CMSSBX10-84"/>
       <use transform="translate(73.059766 0)scale(0.996264)" xlink:href="#CMSSBX10-80"/>
       <use transform="translate(143.075375 0)scale(0.996264)" xlink:href="#CMSSBX10-67"/>
       <use transform="translate(213.090984 0)scale(0.996264)" xlink:href="#CMSSBX10-72"/>
      </g>
     </g>
    </g>
    <g id="xtick_7">
     <g id="text_7">
      <!-- \textbf{T-Q7} -->
      <defs>
       <path d="M 25.703125 19 
C 26.90625 19 30.5 19 30.5 22.59375 
C 30.5 26.1875 26.90625 26.1875 25.703125 26.1875 
L 6 26.1875 
C 4.796875 26.1875 1.203125 26.1875 1.203125 22.59375 
C 1.203125 19 4.796875 19 6 19 
z
" id="CMSSBX10-45"/>
       <path d="M 64.203125 -10.109375 
C 65.5 -10.109375 67.796875 -10.109375 67.796875 -7.90625 
C 67.796875 -7.15625 67.59375 -6.953125 66.296875 -5.25 
L 59.796875 3 
C 72.5 10.703125 73.203125 27.265625 73.203125 34.484375 
C 73.203125 54.65625 65.90625 72 39.703125 72 
C 12 72 6.09375 52.859375 6.09375 34.484375 
C 6.09375 15.71875 12.59375 -2 39.59375 -2 
C 41.296875 -2 43.59375 -2 46.796875 -1.5 
C 48 -3.25 49.203125 -4.953125 50.5 -6.671875 
C 52.59375 -9.8125 52.90625 -10.109375 56.203125 -10.109375 
z
M 38.203125 19.640625 
C 36.796875 19.640625 34.59375 19.640625 34.59375 17.328125 
C 34.59375 16.234375 37.796875 11.71875 39.59375 9.203125 
C 39.90625 8.703125 41.59375 6.296875 41.59375 6 
C 41.59375 5.796875 40 5.796875 39.59375 5.796875 
C 20.5 5.796875 20.5 25.65625 20.5 34.59375 
C 20.5 43.421875 20.5 64.1875 39.59375 64.1875 
C 58.796875 64.1875 58.796875 43.515625 58.796875 34.59375 
C 58.796875 28.265625 58.796875 17.828125 53.203125 11.40625 
L 47.703125 18.53125 
C 46.703125 19.640625 46.296875 19.640625 44.296875 19.640625 
z
" id="CMSSBX10-81"/>
       <path d="M 36.703125 59.1875 
C 14.296875 34.328125 14.296875 8.953125 14.296875 3.8125 
C 14.296875 0.59375 15 -1 19.09375 -1 
L 23.703125 -1 
C 25.296875 -1 28.5 -1 28.5 2.90625 
C 28.796875 27.875 37.5 46.109375 49.5 61.296875 
C 50.296875 62.296875 50.296875 63.09375 50.296875 64.890625 
C 50.296875 67.09375 50.296875 69.796875 46.09375 69.890625 
C 42.703125 70 22.59375 70 17.703125 70 
L 11.40625 70 
C 6.59375 70 4.59375 70 4.59375 65.1875 
L 4.59375 63.890625 
C 4.59375 62.296875 4.59375 60.390625 6.703125 59.484375 
C 7.40625 59.09375 10.703125 59.09375 12.796875 59.09375 
C 15.09375 59.09375 17.5 59.1875 19.796875 59.1875 
z
" id="CMSSBX10-55"/>
      </defs>
      <g style="fill:#262626;" transform="translate(676.189833 461.448845)scale(0.21 -0.21)">
       <use transform="scale(0.996264)" xlink:href="#CMSSBX10-84"/>
       <use transform="translate(73.059766 0)scale(0.996264)" xlink:href="#CMSSBX10-45"/>
       <use transform="translate(109.589649 0)scale(0.996264)" xlink:href="#CMSSBX10-81"/>
       <use transform="translate(188.737729 0)scale(0.996264)" xlink:href="#CMSSBX10-55"/>
      </g>
     </g>
    </g>
    <g id="xtick_8">
     <g id="text_8">
      <!-- \textbf{T-Q9} -->
      <defs>
       <path d="M 36.296875 30.796875 
C 36.203125 29.890625 36.296875 27.984375 36 23.6875 
C 35.5 17.5625 33.703125 7.390625 22.703125 7.390625 
C 19.59375 7.390625 16.703125 8.203125 14 10.71875 
C 13.5 11.3125 13.203125 11.515625 12.703125 11.515625 
C 11.90625 11.515625 11.703125 11.015625 11.203125 10.21875 
C 9.296875 7 7.90625 4.6875 7.90625 4.09375 
C 7.90625 3.296875 13.09375 -2 22.90625 -2 
C 50.296875 -2 50.296875 26.890625 50.296875 35.90625 
C 50.296875 46.640625 50.203125 72 27.5 72 
C 21.296875 72 14.703125 70.890625 9.5 64.484375 
C 5.296875 58.984375 4.59375 53.96875 4.59375 46.25 
C 4.59375 39.921875 4.796875 34.203125 9.09375 28.484375 
C 13.09375 23.296875 17.703125 21.796875 24.09375 21.796875 
C 31.5 21.796875 35 27.6875 36.296875 30.796875 
z
M 26.59375 29 
C 18.59375 29 18.59375 36.21875 18.59375 46.140625 
C 18.59375 55.875 18.59375 63.09375 27.703125 63.09375 
C 34.59375 63.09375 36.203125 55.375 36.203125 44.84375 
C 36.203125 43.4375 36.203125 29 26.59375 29 
z
" id="CMSSBX10-57"/>
      </defs>
      <g style="fill:#262626;" transform="translate(766.964394 461.448845)scale(0.21 -0.21)">
       <use transform="scale(0.996264)" xlink:href="#CMSSBX10-84"/>
       <use transform="translate(73.059766 0)scale(0.996264)" xlink:href="#CMSSBX10-45"/>
       <use transform="translate(109.589649 0)scale(0.996264)" xlink:href="#CMSSBX10-81"/>
       <use transform="translate(188.737729 0)scale(0.996264)" xlink:href="#CMSSBX10-57"/>
      </g>
     </g>
    </g>
   </g>
   <g id="matplotlib.axis_2">
    <g id="ytick_1">
     <g id="text_9">
      <!-- $\mathdefault{-30}$ -->
      <defs>
       <path d="M 65.90625 23 
C 67.59375 23 69.40625 23 69.40625 25 
C 69.40625 27 67.59375 27 65.90625 27 
L 11.796875 27 
C 10.09375 27 8.296875 27 8.296875 25 
C 8.296875 23 10.09375 23 11.796875 23 
z
" id="CMSY10-0"/>
       <path d="M 22.09375 34 
C 31 34 34.90625 26.140625 34.90625 17.09375 
C 34.90625 5.03125 28.5 0.390625 22.703125 0.390625 
C 17.40625 0.390625 8.796875 3.015625 6.09375 10.796875 
C 6.59375 10.59375 7.09375 10.59375 7.59375 10.59375 
C 10 10.59375 11.796875 12.1875 11.796875 14.796875 
C 11.796875 17.6875 9.59375 19 7.59375 19 
C 5.90625 19 3.296875 18.1875 3.296875 14.484375 
C 3.296875 5.234375 12.296875 -2 22.90625 -2 
C 34 -2 42.5 6.75 42.5 16.984375 
C 42.5 26.84375 34.5 34 25 35.09375 
C 32.59375 36.671875 39.90625 43.375 39.90625 52.390625 
C 39.90625 60.25 32 66 23 66 
C 13.90625 66 5.90625 60.34375 5.90625 52.296875 
C 5.90625 48.796875 8.5 48.1875 9.796875 48.1875 
C 11.90625 48.1875 13.703125 49.484375 13.703125 52.09375 
C 13.703125 54.6875 11.90625 56 9.796875 56 
C 9.40625 56 8.90625 56 8.5 55.796875 
C 11.40625 62.484375 19.296875 63.6875 22.796875 63.6875 
C 26.296875 63.6875 32.90625 61.96875 32.90625 52.296875 
C 32.90625 49.484375 32.5 44.546875 29.09375 40.21875 
C 26.09375 36.390625 22.703125 36.1875 19.40625 35.890625 
C 18.90625 35.890625 16.59375 35.6875 16.203125 35.6875 
C 15.5 35.59375 15.09375 35.5 15.09375 34.796875 
C 15.09375 34.09375 15.203125 34 17.203125 34 
z
" id="CMR17-51"/>
       <path d="M 42 31.84375 
C 42 37.96875 41.90625 48.421875 37.703125 56.453125 
C 34 63.484375 28.09375 66 22.90625 66 
C 18.09375 66 12 63.78125 8.203125 56.5625 
C 4.203125 49.015625 3.796875 39.671875 3.796875 31.84375 
C 3.796875 26.109375 3.90625 17.375 7 9.734375 
C 11.296875 -0.609375 19 -2 22.90625 -2 
C 27.5 -2 34.5 -0.109375 38.59375 9.4375 
C 41.59375 16.375 42 24.5 42 31.84375 
z
M 22.90625 -0.40625 
C 16.5 -0.40625 12.703125 5.125 11.296875 12.75 
C 10.203125 18.6875 10.203125 27.328125 10.203125 32.953125 
C 10.203125 40.6875 10.203125 47.109375 11.5 53.234375 
C 13.40625 61.78125 19 64.390625 22.90625 64.390625 
C 27 64.390625 32.296875 61.671875 34.203125 53.4375 
C 35.5 47.71875 35.59375 40.984375 35.59375 32.953125 
C 35.59375 26.421875 35.59375 18.375 34.40625 12.453125 
C 32.296875 1.5 26.40625 -0.40625 22.90625 -0.40625 
z
" id="CMR17-48"/>
      </defs>
      <g style="fill:#262626;" transform="translate(45.626322 419.298498)scale(0.2 -0.2)">
       <use transform="scale(0.996264)" xlink:href="#CMSY10-0"/>
       <use transform="translate(77.487468 0)scale(0.996264)" xlink:href="#CMR17-51"/>
       <use transform="translate(123.177945 0)scale(0.996264)" xlink:href="#CMR17-48"/>
      </g>
     </g>
    </g>
    <g id="ytick_2">
     <g id="text_10">
      <!-- $\mathdefault{-20}$ -->
      <defs>
       <path d="M 41.703125 15.46875 
L 39.90625 15.46875 
C 38.90625 8.390625 38.09375 7.1875 37.703125 6.59375 
C 37.203125 5.796875 30 5.796875 28.59375 5.796875 
L 9.40625 5.796875 
C 13 9.6875 20 16.765625 28.5 24.9375 
C 34.59375 30.71875 41.703125 37.5 41.703125 47.390625 
C 41.703125 59.1875 32.296875 66 21.796875 66 
C 10.796875 66 4.09375 56.296875 4.09375 47.296875 
C 4.09375 43.390625 7 42.890625 8.203125 42.890625 
C 9.203125 42.890625 12.203125 43.484375 12.203125 46.984375 
C 12.203125 50.09375 9.59375 51 8.203125 51 
C 7.59375 51 7 50.890625 6.59375 50.6875 
C 8.5 59.1875 14.296875 63.390625 20.40625 63.390625 
C 29.09375 63.390625 34.796875 56.5 34.796875 47.390625 
C 34.796875 38.703125 29.703125 31.21875 24 24.734375 
L 4.09375 2.296875 
L 4.09375 0 
L 39.296875 0 
z
" id="CMR17-50"/>
      </defs>
      <g style="fill:#262626;" transform="translate(45.626322 364.218498)scale(0.2 -0.2)">
       <use transform="scale(0.996264)" xlink:href="#CMSY10-0"/>
       <use transform="translate(77.487468 0)scale(0.996264)" xlink:href="#CMR17-50"/>
       <use transform="translate(123.177945 0)scale(0.996264)" xlink:href="#CMR17-48"/>
      </g>
     </g>
    </g>
    <g id="ytick_3">
     <g id="text_11">
      <!-- $\mathdefault{-10}$ -->
      <defs>
       <path d="M 26.59375 63.796875 
C 26.59375 65.890625 26.5 66 25.09375 66 
C 21.203125 61.359375 15.296875 59.890625 9.703125 59.6875 
C 9.40625 59.6875 8.90625 59.6875 8.796875 59.5 
C 8.703125 59.296875 8.703125 59.09375 8.703125 57 
C 11.796875 57 17 57.59375 21 59.984375 
L 21 7.296875 
C 21 3.796875 20.796875 2.59375 12.203125 2.59375 
L 9.203125 2.59375 
L 9.203125 0 
C 14 0.09375 19 0.1875 23.796875 0.1875 
C 28.59375 0.1875 33.59375 0.09375 38.40625 0 
L 38.40625 2.59375 
L 35.40625 2.59375 
C 26.796875 2.59375 26.59375 3.6875 26.59375 7.296875 
z
" id="CMR17-49"/>
      </defs>
      <g style="fill:#262626;" transform="translate(45.626322 309.138498)scale(0.2 -0.2)">
       <use transform="scale(0.996264)" xlink:href="#CMSY10-0"/>
       <use transform="translate(77.487468 0)scale(0.996264)" xlink:href="#CMR17-49"/>
       <use transform="translate(123.177945 0)scale(0.996264)" xlink:href="#CMR17-48"/>
      </g>
     </g>
    </g>
    <g id="ytick_4">
     <g id="text_12">
      <!-- $\mathdefault{0}$ -->
      <g style="fill:#262626;" transform="translate(70.261905 254.058498)scale(0.2 -0.2)">
       <use transform="scale(0.996264)" xlink:href="#CMR17-48"/>
      </g>
     </g>
    </g>
    <g id="ytick_5">
     <g id="text_13">
      <!-- $\mathdefault{10}$ -->
      <g style="fill:#262626;" transform="translate(61.123809 198.978498)scale(0.2 -0.2)">
       <use transform="scale(0.996264)" xlink:href="#CMR17-49"/>
       <use transform="translate(45.690477 0)scale(0.996264)" xlink:href="#CMR17-48"/>
      </g>
     </g>
    </g>
    <g id="ytick_6">
     <g id="text_14">
      <!-- $\mathdefault{20}$ -->
      <g style="fill:#262626;" transform="translate(61.123809 143.898498)scale(0.2 -0.2)">
       <use transform="scale(0.996264)" xlink:href="#CMR17-50"/>
       <use transform="translate(45.690477 0)scale(0.996264)" xlink:href="#CMR17-48"/>
      </g>
     </g>
    </g>
    <g id="ytick_7">
     <g id="text_15">
      <!-- $\mathdefault{30}$ -->
      <g style="fill:#262626;" transform="translate(61.123809 88.818498)scale(0.2 -0.2)">
       <use transform="scale(0.996264)" xlink:href="#CMR17-51"/>
       <use transform="translate(45.690477 0)scale(0.996264)" xlink:href="#CMR17-48"/>
      </g>
     </g>
    </g>
    <g id="text_16">
     <!-- \textbf{Speedup relative to ZGC (\%)} -->
     <defs>
      <path d="M 27 44.421875 
C 24.796875 44.921875 18.59375 47.234375 18.59375 52.953125 
C 18.59375 61.484375 27.09375 61.6875 30.5 61.6875 
C 36.09375 61.6875 41.09375 60.390625 46 55.5625 
C 47.59375 54.0625 47.703125 53.953125 48.09375 53.953125 
C 48.703125 53.953125 49.203125 54.265625 49.5 55.765625 
L 51 64.484375 
C 51.203125 65.296875 51.203125 65.484375 51.203125 65.796875 
C 51.203125 66.59375 51.09375 66.6875 48.59375 67.984375 
C 41.5 71.484375 35.59375 72 30.5 72 
C 21.59375 72 6.09375 69.890625 6.09375 51.15625 
C 6.09375 44.015625 9.796875 39.40625 11.703125 37.40625 
C 16.796875 32.171875 21.5 31.171875 29.296875 29.375 
C 34.90625 28.0625 37.09375 27.5625 39.296875 25.546875 
C 40.296875 24.546875 42.40625 22.4375 42.40625 18.625 
C 42.40625 9.1875 33.796875 8.890625 30.5 8.890625 
C 22.09375 8.890625 14.796875 12.3125 9.796875 16.828125 
C 8.59375 18.03125 8.40625 18.03125 8 18.03125 
C 7.40625 18.03125 6.90625 17.71875 6.59375 16.21875 
L 5.09375 7.5 
C 4.90625 6.6875 4.90625 6.5 4.90625 6.1875 
C 4.90625 4.09375 15.296875 0.5 15.796875 0.296875 
C 22.5 -1.8125 27.90625 -2 30.5 -2 
C 45.5 -2 54.90625 4.6875 54.90625 20.234375 
C 54.90625 31.484375 46.59375 39.90625 36.59375 42.21875 
z
" id="CMSSBX10-83"/>
      <path d="M 19.703125 4 
C 24.203125 -1 29.703125 -1 31.09375 -1 
C 52.296875 -1 52.296875 18.1875 52.296875 23.1875 
C 52.296875 28.09375 52.296875 47 34.203125 47 
C 28.296875 47 23 44.59375 19.40625 41.1875 
C 19.40625 44.890625 18 45.890625 14.59375 45.890625 
L 10.90625 45.890625 
C 7.296875 45.890625 6.09375 44.796875 6.09375 41.09375 
L 6.09375 -14.25 
C 6.09375 -17.8125 7.203125 -19 10.90625 -19 
L 14.90625 -19 
C 18.703125 -19 19.703125 -17.703125 19.703125 -14.25 
z
M 19.703125 35.890625 
C 20.796875 36.890625 24.09375 39.1875 28.40625 39.1875 
C 38.59375 39.1875 38.703125 27.390625 38.703125 22.984375 
C 38.703125 18.984375 38.703125 6.1875 27.40625 6.1875 
C 25.09375 6.1875 23.296875 7 22.09375 7.890625 
C 19.703125 9.59375 19.703125 10.09375 19.703125 11.890625 
z
" id="CMSSBX10-112"/>
      <path d="M 43.09375 21.6875 
C 45.40625 21.6875 47.90625 21.796875 47.90625 26.296875 
C 47.90625 39.375 41.90625 48 27 48 
C 11 48 3.09375 38.96875 3.09375 23.59375 
C 3.09375 7 12.59375 -1 28.296875 -1 
C 32.09375 -1 37.796875 -0.5 44.40625 2.796875 
C 46.59375 3.890625 47.296875 4.1875 47.296875 5.390625 
C 47.296875 6.09375 47 9.03125 46.90625 9.84375 
C 46.5 12.984375 46.40625 13.078125 45.5 13.078125 
C 45.09375 13.078125 44.90625 13.078125 43.796875 12.0625 
C 37.90625 6.90625 31.90625 6.1875 28.703125 6.1875 
C 17.40625 6.1875 16.203125 15.203125 15.90625 21.6875 
z
M 16 27 
C 16.296875 33.1875 18.296875 40.796875 27 40.796875 
C 35 40.796875 36.5 34.90625 36.796875 27 
z
" id="CMSSBX10-101"/>
      <path d="M 49.90625 64.265625 
C 49.90625 67.390625 49.203125 69 45.09375 69 
L 41.40625 69 
C 37.59375 69 36.59375 67.6875 36.59375 64.265625 
L 36.59375 41.984375 
C 32.09375 46.296875 27.09375 47 24 47 
C 3.703125 47 3.703125 27.796875 3.703125 22.890625 
C 3.703125 18.296875 3.703125 -1 23.5 -1 
C 27.703125 -1 32 0.1875 36.296875 4.796875 
C 36.296875 1.09375 37.703125 0.09375 41.09375 0.09375 
L 45.09375 0.09375 
C 48.90625 0.09375 49.90625 1.390625 49.90625 4.890625 
z
M 36.296875 12.59375 
C 36.296875 10.890625 36.296875 10 33.40625 8 
C 30.90625 6.390625 28.59375 6.1875 27.40625 6.1875 
C 17.296875 6.1875 17.296875 15.390625 17.296875 22.890625 
C 17.296875 30.390625 17.296875 39.796875 28.5 39.796875 
C 31.40625 39.796875 34.09375 38.796875 36.296875 36.6875 
z
" id="CMSSBX10-100"/>
      <path d="M 50 41.1875 
C 50 44.390625 49.296875 46 45.203125 46 
L 41.203125 46 
C 37.40625 46 36.40625 44.6875 36.40625 41.1875 
L 36.40625 17.421875 
C 36.40625 10.8125 32.90625 5.09375 25.796875 5.09375 
C 20.203125 5.09375 19.59375 6.5 19.59375 11.8125 
L 19.59375 41.1875 
C 19.59375 44.390625 18.90625 46 14.796875 46 
L 10.796875 46 
C 7.203125 46 6 44.890625 6 41.1875 
L 6 12.71875 
C 6 2 11.796875 -1 22.203125 -1 
C 24.90625 -1 32 -1 36.703125 7.5 
L 36.703125 4.890625 
C 36.703125 1.6875 37.40625 0.09375 41.5 0.09375 
L 45.203125 0.09375 
C 49 0.09375 50 1.390625 50 4.890625 
z
" id="CMSSBX10-117"/>
      <path d="M 19.40625 22.75 
C 19.40625 32.140625 27.296875 36 33.59375 36.390625 
C 35.40625 36.484375 35.59375 36.484375 35.59375 39.09375 
L 35.59375 43.796875 
C 35.59375 45.796875 35.59375 46.5 33.796875 46.5 
C 31 46.5 23.703125 45.484375 19 34.71875 
L 18.90625 34.71875 
L 18.90625 41.1875 
C 18.90625 44.390625 18.203125 46 14.09375 46 
L 10.90625 46 
C 7.296875 46 6.09375 44.890625 6.09375 41.1875 
L 6.09375 4.765625 
C 6.09375 1.1875 7.203125 0 10.90625 0 
L 14.59375 0 
C 18.40625 0 19.40625 1.296875 19.40625 4.765625 
z
" id="CMSSBX10-114"/>
      <path d="M 19.40625 64.203125 
C 19.40625 67.390625 18.703125 69 14.59375 69 
L 10.90625 69 
C 7.296875 69 6.09375 67.890625 6.09375 64.203125 
L 6.09375 4.78125 
C 6.09375 1.1875 7.203125 0 10.90625 0 
L 14.59375 0 
C 18.40625 0 19.40625 1.296875 19.40625 4.78125 
z
" id="CMSSBX10-108"/>
      <path d="M 46.40625 31.984375 
C 46.40625 47.890625 31.203125 48 26.203125 48 
C 21.5 48 16.5 47.59375 9.796875 44.796875 
C 7.703125 43.890625 7.203125 43.59375 7.203125 42.484375 
C 7.203125 41.796875 7.796875 35.9375 7.90625 35.125 
C 8 34.515625 8.5 34.015625 9.203125 34.015625 
C 9.703125 34.015625 10 34.3125 10.296875 34.609375 
C 14.59375 39.171875 19.59375 41.390625 25.796875 41.390625 
C 31.203125 41.390625 32.796875 38.0625 32.796875 32.09375 
L 32.796875 28.546875 
C 29.296875 28.546875 3.09375 28.34375 3.09375 13.46875 
C 3.09375 6.390625 8.703125 -1 17.5 -1 
C 20.90625 -1 28.40625 0 33.09375 6.90625 
L 33.09375 4.890625 
C 33.09375 1.6875 33.796875 0.09375 37.90625 0.09375 
L 41.59375 0.09375 
C 45.40625 0.09375 46.40625 1.390625 46.40625 4.890625 
z
M 32.796875 15.59375 
C 32.796875 6.1875 23.296875 6.1875 23 6.1875 
C 18.796875 6.1875 16.09375 9.828125 16.09375 13.671875 
C 16.09375 23.59375 30 24.296875 32.796875 24.40625 
z
" id="CMSSBX10-97"/>
      <path d="M 21.796875 38.796875 
L 30.703125 38.796875 
C 31.90625 38.796875 35.5 38.796875 35.5 42.390625 
C 35.5 46 31.90625 46 30.703125 46 
L 21.796875 46 
L 21.796875 54.21875 
C 21.796875 57.390625 21.09375 59 17 59 
L 13.90625 59 
C 10.296875 59 9.09375 57.890625 9.09375 54.21875 
L 9.09375 46 
L 6.796875 46 
C 5.703125 46 2 46 2 42.390625 
C 2 38.796875 5.59375 38.796875 6.796875 38.796875 
L 8.796875 38.796875 
L 8.796875 13.40625 
C 8.796875 3.296875 12.40625 -1 19.296875 -1 
C 20.203125 -1 24.59375 -1 29.796875 0.59375 
C 31.5 1.09375 37.296875 2.890625 37.296875 4.796875 
C 37.296875 5.09375 37.09375 5.796875 36.5 7.890625 
C 36 9.90625 35.796875 10.5 34.90625 10.5 
C 34.40625 10.5 34.296875 10.40625 33.703125 9.796875 
C 32.59375 9 29.90625 6.796875 25.703125 6.796875 
C 23.296875 6.796875 21.796875 8.5 21.796875 15.125 
z
" id="CMSSBX10-116"/>
      <path d="M 10.203125 70 
C 7 70 5.40625 69.390625 5.40625 65.390625 
L 5.40625 60.796875 
C 5.40625 57.59375 6.40625 56.296875 10.09375 56.296875 
L 15.296875 56.296875 
C 20.09375 56.296875 20.09375 58.390625 20.09375 63.09375 
C 20.09375 67.890625 20.09375 70 15.296875 70 
z
M 19.40625 41.171875 
C 19.40625 44.390625 18.703125 46 14.59375 46 
L 10.90625 46 
C 7.296875 46 6.09375 44.890625 6.09375 41.171875 
L 6.09375 4.8125 
C 6.09375 1.1875 7.203125 0 10.90625 0 
L 14.59375 0 
C 18.40625 0 19.40625 1.296875 19.40625 4.8125 
z
" id="CMSSBX10-105"/>
      <path d="M 46.796875 41.28125 
C 47.296875 42.6875 47.296875 42.890625 47.296875 43.1875 
C 47.296875 46 44.796875 46 43.296875 46 
L 41.203125 46 
C 37 46 35.90625 44.484375 35 41.6875 
L 25.09375 11.34375 
L 15.203125 41.6875 
C 14.5 43.796875 13.796875 46 9 46 
L 6.59375 46 
C 5.09375 46 2.59375 46 2.59375 43.1875 
C 2.59375 42.890625 2.59375 42.6875 3.09375 41.28125 
L 15 4.203125 
C 16.40625 0 19.5 0 21.296875 0 
L 28.59375 0 
C 30.40625 0 33.5 0 34.90625 4.203125 
z
" id="CMSSBX10-118"/>
      <path d="M 51.796875 22.78125 
C 51.796875 39.375 43.796875 48 27.5 48 
C 10.796875 48 3.09375 39.0625 3.09375 22.78125 
C 3.09375 6.296875 11.703125 -1 27.40625 -1 
C 43.09375 -1 51.796875 6.1875 51.796875 22.78125 
z
M 27.5 6.796875 
C 16.703125 6.796875 16.703125 15.90625 16.703125 24 
C 16.703125 31.78125 16.703125 40.796875 27.40625 40.796875 
C 38.203125 40.796875 38.203125 31.890625 38.203125 24 
C 38.203125 16 38.203125 6.796875 27.5 6.796875 
z
" id="CMSSBX10-111"/>
      <path d="M 60 60.296875 
C 61 61.59375 61 61.796875 61 63.984375 
C 61 66.6875 60.90625 69 56.203125 69 
L 12.40625 69 
C 8.203125 69 7.59375 67.296875 7.59375 64.09375 
C 7.59375 59.1875 9.703125 59.1875 13.703125 59.1875 
C 22.40625 59.1875 31.09375 59.484375 39.796875 59.484375 
L 43.296875 59.484375 
L 7.09375 9.09375 
C 6.09375 7.796875 6.09375 7.59375 6.09375 5.59375 
L 6.09375 4.796875 
C 6.09375 1.1875 7.203125 0 10.90625 0 
L 56.796875 0 
C 60.59375 0 61.59375 1.296875 61.59375 4.796875 
L 61.59375 5.6875 
C 61.59375 10.5 59.296875 10.5 55.90625 10.5 
C 47.09375 10.5 33.203125 10.296875 24 10.09375 
z
" id="CMSSBX10-90"/>
      <path d="M 66 31.1875 
C 66 31.59375 65.703125 32.5 64.796875 32.5 
L 44.296875 32.5 
C 43.5 32.5 42.796875 32.296875 42.796875 31.09375 
L 42.796875 24 
C 42.796875 23.390625 43.296875 23 43.90625 23 
L 52.296875 23 
L 52.296875 10.09375 
C 51.40625 9.5 44.703125 8.890625 43.203125 8.890625 
C 26.40625 8.890625 20.90625 19.46875 20.90625 34.921875 
C 20.90625 50.046875 26.296875 60.984375 42.59375 60.984375 
C 51.09375 60.984375 55.203125 58.859375 61.09375 53.28125 
C 61.40625 52.984375 61.703125 52.875 62 52.875 
C 62.5 52.875 63 53.28125 63.203125 54.203125 
L 65 64.484375 
C 65.09375 64.984375 65.203125 65.59375 64.296875 66.09375 
C 61.296875 67.6875 53.90625 71 43.203125 71 
C 16.703125 71 6.203125 57.4375 6.203125 34.921875 
C 6.203125 10.09375 19.296875 -1 42.59375 -1 
C 53.203125 -1 63.203125 2.296875 66 4.59375 
z
" id="CMSSBX10-71"/>
      <path d="M 32.09375 75 
C 30.296875 75 30.09375 75 28.296875 73.390625 
C 16.296875 63.296875 8.59375 46.203125 8.59375 25 
C 8.59375 12.890625 11.09375 -8 27.796875 -23.109375 
C 29.90625 -25 30.09375 -25 32.09375 -25 
L 33.90625 -25 
C 35.5 -25 36.59375 -25 36.59375 -23.703125 
C 36.59375 -23.40625 36.59375 -23.203125 35.40625 -21.90625 
C 29.09375 -14.203125 22.203125 -1.90625 22.203125 25 
C 22.203125 54.390625 30.5 66 36 72.59375 
C 36.40625 73.09375 36.59375 73.296875 36.59375 73.6875 
C 36.59375 75 35.5 75 33.90625 75 
z
" id="CMSSBX10-40"/>
      <path d="M 81.796875 67.6875 
C 83 69.296875 83 70.484375 83 70.796875 
C 83 72.984375 81.203125 75 78.796875 75 
C 76.703125 75 75.59375 73.484375 75.09375 72.890625 
L 21.40625 1.296875 
C 20.703125 0.296875 20.09375 -0.40625 20.09375 -1.8125 
C 20.09375 -4.109375 22 -6 24.296875 -6 
C 26.40625 -6 27.5 -4.609375 28 -3.90625 
z
M 96.703125 14.34375 
C 96.703125 22.90625 94.40625 34.796875 78.796875 34.796875 
C 67 34.796875 60.59375 28.1875 60.59375 14.4375 
C 60.59375 4.96875 63.59375 -6 78.796875 -6 
C 92.5 -6 96.703125 3.234375 96.703125 14.34375 
z
M 78.703125 1.1875 
C 72.59375 1.1875 72.59375 8.125 72.59375 14.4375 
C 72.59375 20.65625 72.59375 27.59375 78.703125 27.59375 
C 85.296875 27.59375 85.296875 17.703125 85.296875 14.4375 
C 85.296875 11.078125 85.296875 1.1875 78.703125 1.1875 
z
M 42.203125 54.84375 
C 42.203125 63.203125 39.90625 75 24.296875 75 
C 12.5 75 6.09375 68.390625 6.09375 54.9375 
C 6.09375 45.671875 9.09375 34.796875 24.296875 34.796875 
C 38 34.796875 42.203125 43.984375 42.203125 54.84375 
z
M 24.203125 42 
C 18.09375 42 18.09375 48.765625 18.09375 54.84375 
C 18.09375 61.015625 18.09375 67.796875 24.203125 67.796875 
C 30.796875 67.796875 30.796875 58.125 30.796875 54.9375 
C 30.796875 51.65625 30.796875 42 24.203125 42 
z
" id="CMSSBX10-37"/>
      <path d="M 8.796875 75 
C 7.203125 75 6.09375 75 6.09375 73.6875 
C 6.09375 73.390625 6.09375 73.1875 7.296875 71.890625 
C 13.5 64.203125 20.5 51.890625 20.5 25 
C 20.5 -4.3125 12.203125 -15.90625 6.703125 -22.609375 
C 6.09375 -23.3125 6.09375 -23.5 6.09375 -23.703125 
C 6.09375 -25 7.203125 -25 8.796875 -25 
L 10.59375 -25 
C 12.40625 -25 12.59375 -25 14.40625 -23.40625 
C 26.40625 -13.3125 34.09375 3.796875 34.09375 25 
C 34.09375 37.09375 31.59375 58 14.90625 73.09375 
C 12.796875 75 12.59375 75 10.59375 75 
z
" id="CMSSBX10-41"/>
     </defs>
     <g style="fill:#262626;" transform="translate(36.645002 396.969395)rotate(-90)scale(0.2 -0.2)">
      <use transform="scale(0.996264)" xlink:href="#CMSSBX10-83"/>
      <use transform="translate(60.883138 0)scale(0.996264)" xlink:href="#CMSSBX10-112"/>
      <use transform="translate(119.829083 0)scale(0.996264)" xlink:href="#CMSSBX10-101"/>
      <use transform="translate(170.749536 0)scale(0.996264)" xlink:href="#CMSSBX10-101"/>
      <use transform="translate(221.669989 0)scale(0.996264)" xlink:href="#CMSSBX10-100"/>
      <use transform="translate(277.571777 0)scale(0.996264)" xlink:href="#CMSSBX10-117"/>
      <use transform="translate(333.473565 0)scale(0.996264)" xlink:href="#CMSSBX10-112"/>
      <use transform="translate(425.905236 0)scale(0.996264)" xlink:href="#CMSSBX10-114"/>
      <use transform="translate(462.988646 0)scale(0.996264)" xlink:href="#CMSSBX10-101"/>
      <use transform="translate(513.909099 0)scale(0.996264)" xlink:href="#CMSSBX10-108"/>
      <use transform="translate(539.369318 0)scale(0.996264)" xlink:href="#CMSSBX10-97"/>
      <use transform="translate(591.673513 0)scale(0.996264)" xlink:href="#CMSSBX10-116"/>
      <use transform="translate(631.939416 0)scale(0.996264)" xlink:href="#CMSSBX10-105"/>
      <use transform="translate(657.399635 0)scale(0.996264)" xlink:href="#CMSSBX10-118"/>
      <use transform="translate(707.213109 0)scale(0.996264)" xlink:href="#CMSSBX10-101"/>
      <use transform="translate(794.663445 0)scale(0.996264)" xlink:href="#CMSSBX10-116"/>
      <use transform="translate(834.929348 0)scale(0.996264)" xlink:href="#CMSSBX10-111"/>
      <use transform="translate(926.254056 0)scale(0.996264)" xlink:href="#CMSSBX10-90"/>
      <use transform="translate(993.225508 0)scale(0.996264)" xlink:href="#CMSSBX10-71"/>
      <use transform="translate(1066.285274 0)scale(0.996264)" xlink:href="#CMSSBX10-67"/>
      <use transform="translate(1172.830766 0)scale(0.996264)" xlink:href="#CMSSBX10-40"/>
      <use transform="translate(1215.448963 0)scale(0.996264)" xlink:href="#CMSSBX10-37"/>
      <use transform="translate(1317.976336 0)scale(0.996264)" xlink:href="#CMSSBX10-41"/>
     </g>
    </g>
   </g>
   <g id="patch_3">
    <path clip-path="url(#pfdd1e63322)" d="M 121.711304 247.14 
L 145.31269 247.14 
L 145.31269 177.321163 
L 121.711304 177.321163 
z
" style="fill:#32cd32;stroke:#ffffff;stroke-linejoin:miter;"/>
   </g>
   <g id="patch_4">
    <path clip-path="url(#pfdd1e63322)" d="M 212.485866 247.14 
L 236.087252 247.14 
L 236.087252 207.876729 
L 212.485866 207.876729 
z
" style="fill:#32cd32;stroke:#ffffff;stroke-linejoin:miter;"/>
   </g>
   <g id="patch_5">
    <path clip-path="url(#pfdd1e63322)" d="M 303.260427 247.14 
L 326.861813 247.14 
L 326.861813 136.101298 
L 303.260427 136.101298 
z
" style="fill:#32cd32;stroke:#ffffff;stroke-linejoin:miter;"/>
   </g>
   <g id="patch_6">
    <path clip-path="url(#pfdd1e63322)" d="M 394.034988 247.14 
L 417.636374 247.14 
L 417.636374 101.254418 
L 394.034988 101.254418 
z
" style="fill:#32cd32;stroke:#ffffff;stroke-linejoin:miter;"/>
   </g>
   <g id="patch_7">
    <path clip-path="url(#pfdd1e63322)" d="M 484.80955 247.14 
L 508.410936 247.14 
L 508.410936 197.517067 
L 484.80955 197.517067 
z
" style="fill:#32cd32;stroke:#ffffff;stroke-linejoin:miter;"/>
   </g>
   <g id="patch_8">
    <path clip-path="url(#pfdd1e63322)" d="M 575.584111 247.14 
L 599.185497 247.14 
L 599.185497 233.132441 
L 575.584111 233.132441 
z
" style="fill:#32cd32;stroke:#ffffff;stroke-linejoin:miter;"/>
   </g>
   <g id="patch_9">
    <path clip-path="url(#pfdd1e63322)" d="M 666.358672 247.14 
L 689.960058 247.14 
L 689.960058 209.193445 
L 666.358672 209.193445 
z
" style="fill:#32cd32;stroke:#ffffff;stroke-linejoin:miter;"/>
   </g>
   <g id="patch_10">
    <path clip-path="url(#pfdd1e63322)" d="M 757.133233 247.14 
L 780.734619 247.14 
L 780.734619 216.642685 
L 757.133233 216.642685 
z
" style="fill:#32cd32;stroke:#ffffff;stroke-linejoin:miter;"/>
   </g>
   <g id="patch_11">
    <path clip-path="url(#pfdd1e63322)" d="M 145.31269 247.14 
L 168.914076 247.14 
L 168.914076 235.234172 
L 145.31269 235.234172 
z
" style="fill:#808080;stroke:#ffffff;stroke-linejoin:miter;"/>
   </g>
   <g id="patch_12">
    <path clip-path="url(#pfdd1e63322)" d="M 236.087252 247.14 
L 259.688638 247.14 
L 259.688638 260.295893 
L 236.087252 260.295893 
z
" style="fill:#808080;stroke:#ffffff;stroke-linejoin:miter;"/>
   </g>
   <g id="patch_13">
    <path clip-path="url(#pfdd1e63322)" d="M 326.861813 247.14 
L 350.463199 247.14 
L 350.463199 220.270667 
L 326.861813 220.270667 
z
" style="fill:#808080;stroke:#ffffff;stroke-linejoin:miter;"/>
   </g>
   <g id="patch_14">
    <path clip-path="url(#pfdd1e63322)" d="M 417.636374 247.14 
L 441.23776 247.14 
L 441.23776 232.901761 
L 417.636374 232.901761 
z
" style="fill:#808080;stroke:#ffffff;stroke-linejoin:miter;"/>
   </g>
   <g id="patch_15">
    <path clip-path="url(#pfdd1e63322)" d="M 508.410936 247.14 
L 532.012321 247.14 
L 532.012321 271.875 
L 508.410936 271.875 
z
" style="fill:#808080;stroke:#ffffff;stroke-linejoin:miter;"/>
   </g>
   <g id="patch_16">
    <path clip-path="url(#pfdd1e63322)" d="M 599.185497 247.14 
L 622.786883 247.14 
L 622.786883 260.480489 
L 599.185497 260.480489 
z
" style="fill:#808080;stroke:#ffffff;stroke-linejoin:miter;"/>
   </g>
   <g id="patch_17">
    <path clip-path="url(#pfdd1e63322)" d="M 689.960058 247.14 
L 713.561444 247.14 
L 713.561444 255.091877 
L 689.960058 255.091877 
z
" style="fill:#808080;stroke:#ffffff;stroke-linejoin:miter;"/>
   </g>
   <g id="patch_18">
    <path clip-path="url(#pfdd1e63322)" d="M 780.734619 247.14 
L 804.336005 247.14 
L 804.336005 240.717322 
L 780.734619 240.717322 
z
" style="fill:#808080;stroke:#ffffff;stroke-linejoin:miter;"/>
   </g>
   <g id="patch_19">
    <path clip-path="url(#pfdd1e63322)" d="M 168.914076 247.14 
L 192.515462 247.14 
L 192.515462 190.197435 
L 168.914076 190.197435 
z
" style="fill:#ff8c00;stroke:#ffffff;stroke-linejoin:miter;"/>
   </g>
   <g id="patch_20">
    <path clip-path="url(#pfdd1e63322)" d="M 259.688638 247.14 
L 283.290023 247.14 
L 283.290023 201.655406 
L 259.688638 201.655406 
z
" style="fill:#ff8c00;stroke:#ffffff;stroke-linejoin:miter;"/>
   </g>
   <g id="patch_21">
    <path clip-path="url(#pfdd1e63322)" d="M 350.463199 247.14 
L 374.064585 247.14 
L 374.064585 174.07267 
L 350.463199 174.07267 
z
" style="fill:#ff8c00;stroke:#ffffff;stroke-linejoin:miter;"/>
   </g>
   <g id="patch_22">
    <path clip-path="url(#pfdd1e63322)" d="M 441.23776 247.14 
L 464.839146 247.14 
L 464.839146 147.623928 
L 441.23776 147.623928 
z
" style="fill:#ff8c00;stroke:#ffffff;stroke-linejoin:miter;"/>
   </g>
   <g id="patch_23">
    <path clip-path="url(#pfdd1e63322)" d="M 532.012321 247.14 
L 555.613707 247.14 
L 555.613707 407.676693 
L 532.012321 407.676693 
z
" style="fill:#ff8c00;stroke:#ffffff;stroke-linejoin:miter;"/>
   </g>
   <g id="patch_24">
    <path clip-path="url(#pfdd1e63322)" d="M 622.786883 247.14 
L 646.388269 247.14 
L 646.388269 299.925163 
L 622.786883 299.925163 
z
" style="fill:#ff8c00;stroke:#ffffff;stroke-linejoin:miter;"/>
   </g>
   <g id="patch_25">
    <path clip-path="url(#pfdd1e63322)" d="M 713.561444 247.14 
L 737.16283 247.14 
L 737.16283 341.982684 
L 713.561444 341.982684 
z
" style="fill:#ff8c00;stroke:#ffffff;stroke-linejoin:miter;"/>
   </g>
   <g id="patch_26">
    <path clip-path="url(#pfdd1e63322)" d="M 804.336005 247.14 
L 827.937391 247.14 
L 827.937391 250.620569 
L 804.336005 250.620569 
z
" style="fill:#ff8c00;stroke:#ffffff;stroke-linejoin:miter;"/>
   </g>
   <g id="line2d_1">
    <path clip-path="url(#pfdd1e63322)" d="M 86.4 247.14 
L 863.248696 247.14 
" style="fill:none;stroke:#808080;stroke-dasharray:8.14,3.52;stroke-dashoffset:0;stroke-width:2.2;"/>
   </g>
   <g id="patch_27">
    <path d="M 86.4 439.92 
L 86.4 81.9 
" style="fill:none;stroke:#cccccc;stroke-linecap:square;stroke-linejoin:miter;stroke-width:0.8;"/>
   </g>
   <g id="patch_28">
    <path d="M 863.248696 439.92 
L 863.248696 81.9 
" style="fill:none;stroke:#cccccc;stroke-linecap:square;stroke-linejoin:miter;stroke-width:0.8;"/>
   </g>
   <g id="patch_29">
    <path d="M 86.4 439.92 
L 863.248696 439.92 
" style="fill:none;stroke:#cccccc;stroke-linecap:square;stroke-linejoin:miter;stroke-width:0.8;"/>
   </g>
   <g id="patch_30">
    <path d="M 86.4 81.9 
L 863.248696 81.9 
" style="fill:none;stroke:#cccccc;stroke-linecap:square;stroke-linejoin:miter;stroke-width:0.8;"/>
   </g>
   <g id="text_17">
    <!-- \textbf{(a) Flink applications} -->
    <defs>
     <path d="M 23.796875 29.59375 
L 47 29.59375 
C 50.09375 29.59375 51.796875 30.296875 51.796875 34.296875 
C 51.796875 37.984375 50.5 39 47 39 
L 23.796875 39 
L 23.796875 58.59375 
L 28.09375 58.59375 
C 35.59375 58.59375 43.203125 58.296875 50.703125 58.296875 
C 54.09375 58.296875 56.40625 58.296875 56.40625 63.09375 
L 56.40625 63.890625 
C 56.40625 67.09375 55.703125 68.6875 51.59375 68.6875 
L 13.90625 68.6875 
C 10.296875 68.6875 9.09375 67.59375 9.09375 63.890625 
L 9.09375 4.765625 
C 9.09375 1.1875 10.203125 0 13.90625 0 
L 19 0 
C 22.796875 0 23.796875 1.296875 23.796875 4.765625 
z
" id="CMSSBX10-70"/>
     <path d="M 50 32.578125 
C 50 42.890625 45.59375 47 35.40625 47 
C 24.90625 47 20.40625 39.390625 19.09375 36.6875 
L 19 36.6875 
L 19 41.6875 
C 19 44.890625 18.296875 46.484375 14.203125 46.484375 
L 10.796875 46.484375 
C 7.203125 46.484375 6 45.390625 6 41.6875 
L 6 4.796875 
C 6 1.1875 7.09375 0 10.796875 0 
L 14.796875 0 
C 18.59375 0 19.59375 1.296875 19.59375 4.796875 
L 19.59375 26.953125 
C 19.59375 35.6875 25.40625 39.796875 30.59375 39.796875 
C 35.40625 39.796875 36.40625 37.484375 36.40625 32.375 
L 36.40625 4.796875 
C 36.40625 1.59375 37.09375 0 41.203125 0 
L 45.203125 0 
C 49 0 50 1.296875 50 4.796875 
z
" id="CMSSBX10-110"/>
     <path d="M 31.296875 27.03125 
L 46.703125 41.25 
C 47.90625 42.34375 48.203125 42.640625 48.203125 43.4375 
C 48.203125 45.515625 46.203125 45.515625 44.796875 45.515625 
L 39 45.515625 
C 37.203125 45.515625 35.296875 45.515625 33 43.4375 
L 18.59375 30.125 
L 18.59375 64.203125 
C 18.59375 67.390625 17.90625 69 13.796875 69 
L 11.703125 69 
C 8.09375 69 6.90625 67.890625 6.90625 64.203125 
L 6.90625 4.78125 
C 6.90625 1.1875 8 0 11.703125 0 
L 13.5 0 
C 17.296875 0 18.296875 1.296875 18.296875 4.78125 
L 18.296875 15.109375 
L 23 19.390625 
L 36 2.484375 
C 37.703125 0.296875 38.40625 0 41.296875 0 
L 46.09375 0 
C 47.5 0 49.703125 0 49.703125 2.1875 
C 49.703125 2.390625 49.703125 3.09375 48.703125 4.375 
z
" id="CMSSBX10-107"/>
     <path d="M 45.703125 5.09375 
C 45.703125 6.1875 45.296875 10.84375 45.09375 12.15625 
C 45.09375 12.453125 44.90625 13.46875 43.90625 13.46875 
C 43.5 13.46875 43.296875 13.46875 42.296875 12.453125 
C 40.59375 10.9375 35.90625 6.796875 27.703125 6.796875 
C 17.296875 6.796875 17.296875 17.015625 17.296875 23.5 
C 17.296875 31.6875 17.796875 40.1875 28 40.1875 
C 34.5 40.1875 37.203125 38.578125 40.796875 35.53125 
C 42 34.421875 42.203125 34.421875 42.59375 34.421875 
C 43.59375 34.421875 43.796875 35.328125 43.90625 35.734375 
C 44.09375 36.546875 45.09375 42.1875 45.09375 42.6875 
C 45.09375 43.59375 44.40625 43.984375 42.703125 44.796875 
C 37.90625 46.984375 34.90625 48 27.90625 48 
C 13 48 3.703125 40.984375 3.703125 23.296875 
C 3.703125 6.5 12.296875 -1 27.40625 -1 
C 30.09375 -1 36.09375 -0.90625 42.796875 2.5 
C 45.59375 4 45.703125 4.09375 45.703125 5.09375 
z
" id="CMSSBX10-99"/>
     <path d="M 39.59375 14.28125 
C 39.59375 19.953125 36.59375 23.484375 34.796875 25.109375 
C 30.796875 28.75 27.296875 29.359375 23.09375 30.171875 
C 17.59375 31.171875 13.59375 31.984375 13.59375 35.9375 
C 13.59375 40.078125 16.90625 40.890625 20.796875 40.890625 
C 27.5 40.890625 31.09375 38.359375 33.703125 36.140625 
C 34.703125 35.125 34.90625 35.125 35.296875 35.125 
C 36.296875 35.125 36.5 36.03125 36.59375 36.4375 
C 36.796875 37.25 37.796875 42.890625 37.796875 43.390625 
C 37.796875 44.984375 32.5 46.390625 31.40625 46.796875 
C 27.40625 47.890625 24.203125 48 21.59375 48 
C 17.09375 48 3.703125 48 3.703125 33.609375 
C 3.703125 28.640625 5.90625 25.609375 8.59375 23.1875 
C 12.09375 19.953125 16 19.234375 21.703125 18.125 
C 24.59375 17.625 29.703125 16.703125 29.703125 12.25 
C 29.703125 7.5 25.796875 6.796875 21.90625 6.796875 
C 17.5 6.796875 11.90625 8.109375 7.203125 13.78125 
C 6.703125 14.28125 6.40625 14.578125 5.796875 14.578125 
C 4.796875 14.578125 4.59375 13.671875 4.5 13.0625 
C 4.296875 11.65625 3.09375 5.890625 3.09375 4.890625 
C 3.09375 3.09375 10.5 0.796875 10.59375 0.6875 
C 16.09375 -1 20.203125 -1 21.90625 -1 
C 27 -1 39.59375 -0.609375 39.59375 14.28125 
z
" id="CMSSBX10-115"/>
    </defs>
    <g style="fill:#262626;" transform="translate(373.432799 75.9)scale(0.21 -0.21)">
     <use transform="scale(0.996264)" xlink:href="#CMSSBX10-40"/>
     <use transform="translate(42.618197 0)scale(0.996264)" xlink:href="#CMSSBX10-97"/>
     <use transform="translate(94.922392 0)scale(0.996264)" xlink:href="#CMSSBX10-41"/>
     <use transform="translate(174.070472 0)scale(0.996264)" xlink:href="#CMSSBX10-70"/>
     <use transform="translate(234.95361 0)scale(0.996264)" xlink:href="#CMSSBX10-108"/>
     <use transform="translate(260.413829 0)scale(0.996264)" xlink:href="#CMSSBX10-105"/>
     <use transform="translate(285.874048 0)scale(0.996264)" xlink:href="#CMSSBX10-110"/>
     <use transform="translate(341.775836 0)scale(0.996264)" xlink:href="#CMSSBX10-107"/>
     <use transform="translate(431.16335 0)scale(0.996264)" xlink:href="#CMSSBX10-97"/>
     <use transform="translate(483.467545 0)scale(0.996264)" xlink:href="#CMSSBX10-112"/>
     <use transform="translate(539.369333 0)scale(0.996264)" xlink:href="#CMSSBX10-112"/>
     <use transform="translate(595.271121 0)scale(0.996264)" xlink:href="#CMSSBX10-108"/>
     <use transform="translate(620.73134 0)scale(0.996264)" xlink:href="#CMSSBX10-105"/>
     <use transform="translate(646.191558 0)scale(0.996264)" xlink:href="#CMSSBX10-99"/>
     <use transform="translate(694.898069 0)scale(0.996264)" xlink:href="#CMSSBX10-97"/>
     <use transform="translate(747.202264 0)scale(0.996264)" xlink:href="#CMSSBX10-116"/>
     <use transform="translate(787.468167 0)scale(0.996264)" xlink:href="#CMSSBX10-105"/>
     <use transform="translate(812.928386 0)scale(0.996264)" xlink:href="#CMSSBX10-111"/>
     <use transform="translate(867.723211 0)scale(0.996264)" xlink:href="#CMSSBX10-110"/>
     <use transform="translate(923.624999 0)scale(0.996264)" xlink:href="#CMSSBX10-115"/>
    </g>
   </g>
  </g>
  <g id="axes_2">
   <g id="patch_31">
    <path d="M 933.871304 439.92 
L 1710.72 439.92 
L 1710.72 81.9 
L 933.871304 81.9 
z
" style="fill:#ffffff;"/>
   </g>
   <g id="matplotlib.axis_3">
    <g id="xtick_9">
     <g id="text_18">
      <!-- \textbf{LR} -->
      <g style="fill:#262626;" transform="translate(991.159963 461.448845)scale(0.21 -0.21)">
       <use transform="scale(0.996264)" xlink:href="#CMSSBX10-76"/>
       <use transform="translate(57.838982 0)scale(0.996264)" xlink:href="#CMSSBX10-82"/>
      </g>
     </g>
    </g>
    <g id="xtick_10">
     <g id="text_19">
      <!-- \textbf{SVM} -->
      <defs>
       <path d="M 70 64.5 
C 70.40625 65.703125 70.5 65.796875 70.5 66.296875 
C 70.5 69 68 69 66.59375 69 
L 62.703125 69 
C 60.59375 69 57.703125 69 56.09375 64.609375 
L 42.59375 27.734375 
L 37.40625 12.421875 
C 37.296875 12.71875 36.203125 16.203125 34.703125 20.28125 
L 18.5 64.703125 
C 16.90625 69 14.09375 69 12 69 
L 6.59375 69 
C 5.203125 69 2.703125 69 2.703125 66.296875 
C 2.703125 65.796875 2.796875 65.703125 3.203125 64.5 
L 25.59375 4.171875 
C 27.09375 0 30 0 32 0 
L 41.203125 0 
C 43.296875 0 46.09375 0 47.703125 4.375 
z
" id="CMSSBX10-86"/>
      </defs>
      <g style="fill:#262626;" transform="translate(1071.066877 461.448845)scale(0.21 -0.21)">
       <use transform="scale(0.996264)" xlink:href="#CMSSBX10-83"/>
       <use transform="translate(60.883138 0)scale(0.996264)" xlink:href="#CMSSBX10-86"/>
       <use transform="translate(133.942905 0)scale(0.996264)" xlink:href="#CMSSBX10-77"/>
      </g>
     </g>
    </g>
    <g id="xtick_11">
     <g id="text_20">
      <!-- \textbf{GMM} -->
      <g style="fill:#262626;" transform="translate(1158.0058 461.448845)scale(0.21 -0.21)">
       <use transform="scale(0.996264)" xlink:href="#CMSSBX10-71"/>
       <use transform="translate(73.059766 0)scale(0.996264)" xlink:href="#CMSSBX10-77"/>
       <use transform="translate(170.472788 0)scale(0.996264)" xlink:href="#CMSSBX10-77"/>
      </g>
     </g>
    </g>
    <g id="xtick_12">
     <g id="text_21">
      <!-- \textbf{KM} -->
      <g style="fill:#262626;" transform="translate(1258.689096 461.448845)scale(0.21 -0.21)">
       <use transform="scale(0.996264)" xlink:href="#CMSSBX10-75"/>
       <use transform="translate(76.103923 0)scale(0.996264)" xlink:href="#CMSSBX10-77"/>
      </g>
     </g>
    </g>
    <g id="xtick_13">
     <g id="text_22">
      <!-- \textbf{PR} -->
      <g style="fill:#262626;" transform="translate(1352.979662 461.448845)scale(0.21 -0.21)">
       <use transform="scale(0.996264)" xlink:href="#CMSSBX10-80"/>
       <use transform="translate(70.015609 0)scale(0.996264)" xlink:href="#CMSSBX10-82"/>
      </g>
     </g>
    </g>
    <g id="xtick_14">
     <g id="text_23">
      <!-- \textbf{TPCH} -->
      <g style="fill:#262626;" transform="translate(1427.7724 461.448845)scale(0.21 -0.21)">
       <use transform="scale(0.996264)" xlink:href="#CMSSBX10-84"/>
       <use transform="translate(73.059766 0)scale(0.996264)" xlink:href="#CMSSBX10-80"/>
       <use transform="translate(143.075375 0)scale(0.996264)" xlink:href="#CMSSBX10-67"/>
       <use transform="translate(213.090984 0)scale(0.996264)" xlink:href="#CMSSBX10-72"/>
      </g>
     </g>
    </g>
    <g id="xtick_15">
     <g id="text_24">
      <!-- \textbf{T-Q7} -->
      <g style="fill:#262626;" transform="translate(1523.661137 461.448845)scale(0.21 -0.21)">
       <use transform="scale(0.996264)" xlink:href="#CMSSBX10-84"/>
       <use transform="translate(73.059766 0)scale(0.996264)" xlink:href="#CMSSBX10-45"/>
       <use transform="translate(109.589649 0)scale(0.996264)" xlink:href="#CMSSBX10-81"/>
       <use transform="translate(188.737729 0)scale(0.996264)" xlink:href="#CMSSBX10-55"/>
      </g>
     </g>
    </g>
    <g id="xtick_16">
     <g id="text_25">
      <!-- \textbf{T-Q9} -->
      <g style="fill:#262626;" transform="translate(1614.435699 461.448845)scale(0.21 -0.21)">
       <use transform="scale(0.996264)" xlink:href="#CMSSBX10-84"/>
       <use transform="translate(73.059766 0)scale(0.996264)" xlink:href="#CMSSBX10-45"/>
       <use transform="translate(109.589649 0)scale(0.996264)" xlink:href="#CMSSBX10-81"/>
       <use transform="translate(188.737729 0)scale(0.996264)" xlink:href="#CMSSBX10-57"/>
      </g>
     </g>
    </g>
   </g>
   <g id="matplotlib.axis_4">
    <g id="ytick_8">
     <g id="text_26">
      <!-- $\mathdefault{-30}$ -->
      <g style="fill:#262626;" transform="translate(893.097626 419.298498)scale(0.2 -0.2)">
       <use transform="scale(0.996264)" xlink:href="#CMSY10-0"/>
       <use transform="translate(77.487468 0)scale(0.996264)" xlink:href="#CMR17-51"/>
       <use transform="translate(123.177945 0)scale(0.996264)" xlink:href="#CMR17-48"/>
      </g>
     </g>
    </g>
    <g id="ytick_9">
     <g id="text_27">
      <!-- $\mathdefault{-20}$ -->
      <g style="fill:#262626;" transform="translate(893.097626 364.218498)scale(0.2 -0.2)">
       <use transform="scale(0.996264)" xlink:href="#CMSY10-0"/>
       <use transform="translate(77.487468 0)scale(0.996264)" xlink:href="#CMR17-50"/>
       <use transform="translate(123.177945 0)scale(0.996264)" xlink:href="#CMR17-48"/>
      </g>
     </g>
    </g>
    <g id="ytick_10">
     <g id="text_28">
      <!-- $\mathdefault{-10}$ -->
      <g style="fill:#262626;" transform="translate(893.097626 309.138498)scale(0.2 -0.2)">
       <use transform="scale(0.996264)" xlink:href="#CMSY10-0"/>
       <use transform="translate(77.487468 0)scale(0.996264)" xlink:href="#CMR17-49"/>
       <use transform="translate(123.177945 0)scale(0.996264)" xlink:href="#CMR17-48"/>
      </g>
     </g>
    </g>
    <g id="ytick_11">
     <g id="text_29">
      <!-- $\mathdefault{0}$ -->
      <g style="fill:#262626;" transform="translate(917.733209 254.058498)scale(0.2 -0.2)">
       <use transform="scale(0.996264)" xlink:href="#CMR17-48"/>
      </g>
     </g>
    </g>
    <g id="ytick_12">
     <g id="text_30">
      <!-- $\mathdefault{10}$ -->
      <g style="fill:#262626;" transform="translate(908.595114 198.978498)scale(0.2 -0.2)">
       <use transform="scale(0.996264)" xlink:href="#CMR17-49"/>
       <use transform="translate(45.690477 0)scale(0.996264)" xlink:href="#CMR17-48"/>
      </g>
     </g>
    </g>
    <g id="ytick_13">
     <g id="text_31">
      <!-- $\mathdefault{20}$ -->
      <g style="fill:#262626;" transform="translate(908.595114 143.898498)scale(0.2 -0.2)">
       <use transform="scale(0.996264)" xlink:href="#CMR17-50"/>
       <use transform="translate(45.690477 0)scale(0.996264)" xlink:href="#CMR17-48"/>
      </g>
     </g>
    </g>
    <g id="ytick_14">
     <g id="text_32">
      <!-- $\mathdefault{30}$ -->
      <g style="fill:#262626;" transform="translate(908.595114 88.818498)scale(0.2 -0.2)">
       <use transform="scale(0.996264)" xlink:href="#CMR17-51"/>
       <use transform="translate(45.690477 0)scale(0.996264)" xlink:href="#CMR17-48"/>
      </g>
     </g>
    </g>
   </g>
   <g id="patch_32">
    <path clip-path="url(#pf939b84ed5)" d="M 969.182609 247.14 
L 992.783995 247.14 
L 992.783995 199.974158 
L 969.182609 199.974158 
z
" style="fill:#32cd32;stroke:#ffffff;stroke-linejoin:miter;"/>
   </g>
   <g id="patch_33">
    <path clip-path="url(#pf939b84ed5)" d="M 1059.95717 247.14 
L 1083.558556 247.14 
L 1083.558556 192.202241 
L 1059.95717 192.202241 
z
" style="fill:#32cd32;stroke:#ffffff;stroke-linejoin:miter;"/>
   </g>
   <g id="patch_34">
    <path clip-path="url(#pf939b84ed5)" d="M 1150.731731 247.14 
L 1174.333117 247.14 
L 1174.333117 202.636808 
L 1150.731731 202.636808 
z
" style="fill:#32cd32;stroke:#ffffff;stroke-linejoin:miter;"/>
   </g>
   <g id="patch_35">
    <path clip-path="url(#pf939b84ed5)" d="M 1241.506293 247.14 
L 1265.107679 247.14 
L 1265.107679 214.266161 
L 1241.506293 214.266161 
z
" style="fill:#32cd32;stroke:#ffffff;stroke-linejoin:miter;"/>
   </g>
   <g id="patch_36">
    <path clip-path="url(#pf939b84ed5)" d="M 1332.280854 247.14 
L 1355.88224 247.14 
L 1355.88224 221.803956 
L 1332.280854 221.803956 
z
" style="fill:#32cd32;stroke:#ffffff;stroke-linejoin:miter;"/>
   </g>
   <g id="patch_37">
    <path clip-path="url(#pf939b84ed5)" d="M 1423.055415 247.14 
L 1446.656801 247.14 
L 1446.656801 238.217918 
L 1423.055415 238.217918 
z
" style="fill:#32cd32;stroke:#ffffff;stroke-linejoin:miter;"/>
   </g>
   <g id="patch_38">
    <path clip-path="url(#pf939b84ed5)" d="M 1513.829977 247.14 
L 1537.431362 247.14 
L 1537.431362 224.351419 
L 1513.829977 224.351419 
z
" style="fill:#32cd32;stroke:#ffffff;stroke-linejoin:miter;"/>
   </g>
   <g id="patch_39">
    <path clip-path="url(#pf939b84ed5)" d="M 1604.604538 247.14 
L 1628.205924 247.14 
L 1628.205924 204.343819 
L 1604.604538 204.343819 
z
" style="fill:#32cd32;stroke:#ffffff;stroke-linejoin:miter;"/>
   </g>
   <g id="patch_40">
    <path clip-path="url(#pf939b84ed5)" d="M 992.783995 247.14 
L 1016.385381 247.14 
L 1016.385381 266.967858 
L 992.783995 266.967858 
z
" style="fill:#808080;stroke:#ffffff;stroke-linejoin:miter;"/>
   </g>
   <g id="patch_41">
    <path clip-path="url(#pf939b84ed5)" d="M 1083.558556 247.14 
L 1107.159942 247.14 
L 1107.159942 251.392901 
L 1083.558556 251.392901 
z
" style="fill:#808080;stroke:#ffffff;stroke-linejoin:miter;"/>
   </g>
   <g id="patch_42">
    <path clip-path="url(#pf939b84ed5)" d="M 1174.333117 247.14 
L 1197.934503 247.14 
L 1197.934503 249.840553 
L 1174.333117 249.840553 
z
" style="fill:#808080;stroke:#ffffff;stroke-linejoin:miter;"/>
   </g>
   <g id="patch_43">
    <path clip-path="url(#pf939b84ed5)" d="M 1265.107679 247.14 
L 1288.709064 247.14 
L 1288.709064 313.582473 
L 1265.107679 313.582473 
z
" style="fill:#808080;stroke:#ffffff;stroke-linejoin:miter;"/>
   </g>
   <g id="patch_44">
    <path clip-path="url(#pf939b84ed5)" d="M 1355.88224 247.14 
L 1379.483626 247.14 
L 1379.483626 257.629273 
L 1355.88224 257.629273 
z
" style="fill:#808080;stroke:#ffffff;stroke-linejoin:miter;"/>
   </g>
   <g id="patch_45">
    <path clip-path="url(#pf939b84ed5)" d="M 1446.656801 247.14 
L 1470.258187 247.14 
L 1470.258187 236.546475 
L 1446.656801 236.546475 
z
" style="fill:#808080;stroke:#ffffff;stroke-linejoin:miter;"/>
   </g>
   <g id="patch_46">
    <path clip-path="url(#pf939b84ed5)" d="M 1537.431362 247.14 
L 1561.032748 247.14 
L 1561.032748 225.299108 
L 1537.431362 225.299108 
z
" style="fill:#808080;stroke:#ffffff;stroke-linejoin:miter;"/>
   </g>
   <g id="patch_47">
    <path clip-path="url(#pf939b84ed5)" d="M 1628.205924 247.14 
L 1651.80731 247.14 
L 1651.80731 211.190013 
L 1628.205924 211.190013 
z
" style="fill:#808080;stroke:#ffffff;stroke-linejoin:miter;"/>
   </g>
   <g id="patch_48">
    <path clip-path="url(#pf939b84ed5)" d="M 1016.385381 247.14 
L 1039.986767 247.14 
L 1039.986767 304.738756 
L 1016.385381 304.738756 
z
" style="fill:#ff8c00;stroke:#ffffff;stroke-linejoin:miter;"/>
   </g>
   <g id="patch_49">
    <path clip-path="url(#pf939b84ed5)" d="M 1107.159942 247.14 
L 1130.761328 247.14 
L 1130.761328 363.110019 
L 1107.159942 363.110019 
z
" style="fill:#ff8c00;stroke:#ffffff;stroke-linejoin:miter;"/>
   </g>
   <g id="patch_50">
    <path clip-path="url(#pf939b84ed5)" d="M 1197.934503 247.14 
L 1221.535889 247.14 
L 1221.535889 230.695433 
L 1197.934503 230.695433 
z
" style="fill:#ff8c00;stroke:#ffffff;stroke-linejoin:miter;"/>
   </g>
   <g id="patch_51">
    <path clip-path="url(#pf939b84ed5)" d="M 1288.709064 247.14 
L 1312.31045 247.14 
L 1312.31045 425.533793 
L 1288.709064 425.533793 
z
" style="fill:#ff8c00;stroke:#ffffff;stroke-linejoin:miter;"/>
   </g>
   <g id="patch_52">
    <path clip-path="url(#pf939b84ed5)" d="M 1379.483626 247.14 
L 1403.085012 247.14 
L 1403.085012 346.421182 
L 1379.483626 346.421182 
z
" style="fill:#ff8c00;stroke:#ffffff;stroke-linejoin:miter;"/>
   </g>
   <g id="patch_53">
    <path clip-path="url(#pf939b84ed5)" d="M 1470.258187 247.14 
L 1493.859573 247.14 
L 1493.859573 222.712575 
L 1470.258187 222.712575 
z
" style="fill:#ff8c00;stroke:#ffffff;stroke-linejoin:miter;"/>
   </g>
   <g id="patch_54">
    <path clip-path="url(#pf939b84ed5)" d="M 1561.032748 247.14 
L 1584.634134 247.14 
L 1584.634134 219.082547 
L 1561.032748 219.082547 
z
" style="fill:#ff8c00;stroke:#ffffff;stroke-linejoin:miter;"/>
   </g>
   <g id="patch_55">
    <path clip-path="url(#pf939b84ed5)" d="M 1651.80731 247.14 
L 1675.408696 247.14 
L 1675.408696 195.2337 
L 1651.80731 195.2337 
z
" style="fill:#ff8c00;stroke:#ffffff;stroke-linejoin:miter;"/>
   </g>
   <g id="line2d_2">
    <path clip-path="url(#pf939b84ed5)" d="M 933.871304 247.14 
L 1710.72 247.14 
" style="fill:none;stroke:#808080;stroke-dasharray:8.14,3.52;stroke-dashoffset:0;stroke-width:2.2;"/>
   </g>
   <g id="patch_56">
    <path d="M 933.871304 439.92 
L 933.871304 81.9 
" style="fill:none;stroke:#cccccc;stroke-linecap:square;stroke-linejoin:miter;stroke-width:0.8;"/>
   </g>
   <g id="patch_57">
    <path d="M 1710.72 439.92 
L 1710.72 81.9 
" style="fill:none;stroke:#cccccc;stroke-linecap:square;stroke-linejoin:miter;stroke-width:0.8;"/>
   </g>
   <g id="patch_58">
    <path d="M 933.871304 439.92 
L 1710.72 439.92 
" style="fill:none;stroke:#cccccc;stroke-linecap:square;stroke-linejoin:miter;stroke-width:0.8;"/>
   </g>
   <g id="patch_59">
    <path d="M 933.871304 81.9 
L 1710.72 81.9 
" style="fill:none;stroke:#cccccc;stroke-linecap:square;stroke-linejoin:miter;stroke-width:0.8;"/>
   </g>
   <g id="text_33">
    <!-- \textbf{(b) Spark applications} -->
    <defs>
     <path d="M 19.40625 64.265625 
C 19.40625 67.390625 18.703125 69 14.59375 69 
L 10.90625 69 
C 7.296875 69 6.09375 67.890625 6.09375 64.265625 
L 6.09375 4.890625 
C 6.09375 1.296875 7.203125 0.09375 10.90625 0.09375 
L 14.90625 0.09375 
C 16.59375 0.09375 19.59375 0.09375 19.703125 4 
C 24.296875 -1 29.40625 -1 31 -1 
C 52.296875 -1 52.296875 18.1875 52.296875 23.1875 
C 52.296875 27.984375 52.296875 47 33.5 47 
C 25.296875 47 20.296875 42.390625 19.40625 41.390625 
z
M 19.703125 36.296875 
C 21 37.484375 24 39.796875 28.59375 39.796875 
C 38.703125 39.796875 38.703125 30.59375 38.703125 23.09375 
C 38.703125 15.6875 38.703125 6.1875 27.5 6.1875 
C 23.296875 6.1875 20.796875 8.6875 19.703125 10.09375 
z
" id="CMSSBX10-98"/>
    </defs>
    <g style="fill:#262626;" transform="translate(1216.806942 75.9)scale(0.21 -0.21)">
     <use transform="scale(0.996264)" xlink:href="#CMSSBX10-40"/>
     <use transform="translate(42.618197 0)scale(0.996264)" xlink:href="#CMSSBX10-98"/>
     <use transform="translate(98.519985 0)scale(0.996264)" xlink:href="#CMSSBX10-41"/>
     <use transform="translate(177.668065 0)scale(0.996264)" xlink:href="#CMSSBX10-83"/>
     <use transform="translate(238.551203 0)scale(0.996264)" xlink:href="#CMSSBX10-112"/>
     <use transform="translate(294.452991 0)scale(0.996264)" xlink:href="#CMSSBX10-97"/>
     <use transform="translate(343.713029 0)scale(0.996264)" xlink:href="#CMSSBX10-114"/>
     <use transform="translate(380.79644 0)scale(0.996264)" xlink:href="#CMSSBX10-107"/>
     <use transform="translate(470.183954 0)scale(0.996264)" xlink:href="#CMSSBX10-97"/>
     <use transform="translate(522.488149 0)scale(0.996264)" xlink:href="#CMSSBX10-112"/>
     <use transform="translate(578.389937 0)scale(0.996264)" xlink:href="#CMSSBX10-112"/>
     <use transform="translate(634.291725 0)scale(0.996264)" xlink:href="#CMSSBX10-108"/>
     <use transform="translate(659.751943 0)scale(0.996264)" xlink:href="#CMSSBX10-105"/>
     <use transform="translate(685.212162 0)scale(0.996264)" xlink:href="#CMSSBX10-99"/>
     <use transform="translate(733.918673 0)scale(0.996264)" xlink:href="#CMSSBX10-97"/>
     <use transform="translate(786.222868 0)scale(0.996264)" xlink:href="#CMSSBX10-116"/>
     <use transform="translate(826.488771 0)scale(0.996264)" xlink:href="#CMSSBX10-105"/>
     <use transform="translate(851.94899 0)scale(0.996264)" xlink:href="#CMSSBX10-111"/>
     <use transform="translate(906.743815 0)scale(0.996264)" xlink:href="#CMSSBX10-110"/>
     <use transform="translate(962.645603 0)scale(0.996264)" xlink:href="#CMSSBX10-115"/>
    </g>
   </g>
  </g>
  <g id="legend_1">
   <g id="patch_60">
    <path d="M 634.987648 46.069411 
L 1093.012352 46.069411 
Q 1097.212352 46.069411 1097.212352 41.869411 
L 1097.212352 14.7 
Q 1097.212352 10.5 1093.012352 10.5 
L 634.987648 10.5 
Q 630.787648 10.5 630.787648 14.7 
L 630.787648 41.869411 
Q 630.787648 46.069411 634.987648 46.069411 
z
" style="fill:#ffffff;opacity:0.8;stroke:#808080;stroke-linejoin:miter;"/>
   </g>
   <g id="patch_61">
    <path d="M 639.187648 33.6 
L 681.187648 33.6 
L 681.187648 18.9 
L 639.187648 18.9 
z
" style="fill:#32cd32;stroke:#ffffff;stroke-linejoin:miter;"/>
   </g>
   <g id="text_34">
    <!-- \textbf{BridgeGC} -->
    <defs>
     <path d="M 13.90625 69 
C 10.296875 69 9.09375 67.890625 9.09375 64.1875 
L 9.09375 4.796875 
C 9.09375 1.1875 10.203125 0 13.90625 0 
L 41.296875 0 
C 48.703125 0 67.09375 1.296875 67.09375 19.171875 
C 67.09375 33 53.203125 35.1875 49.5 35.796875 
C 58.703125 37.890625 64 43.109375 64 50.953125 
C 64 69 42.703125 69 38.5 69 
z
M 23.203125 39.1875 
L 23.203125 60.390625 
L 34.90625 60.390625 
C 38.796875 60.390625 50.40625 60.09375 50.40625 50.640625 
C 50.40625 39.1875 37.296875 39.1875 34.796875 39.1875 
z
M 23.203125 8.59375 
L 23.203125 32 
L 35.796875 32 
C 39.296875 32 53.203125 32 53.203125 19.359375 
C 53.203125 9.28125 42.5 8.59375 37.703125 8.59375 
z
" id="CMSSBX10-66"/>
     <path d="M 20 8.890625 
C 16.40625 8.890625 15 8.890625 13.59375 10.171875 
C 13.203125 10.59375 11.5 12.1875 11.5 14.890625 
C 11.5 15.59375 11.59375 15.796875 11.703125 16.390625 
C 16.40625 13.796875 22.296875 13.796875 24.40625 13.796875 
C 28.59375 13.796875 44.5 13.796875 44.5 30.34375 
C 44.5 36.171875 42.296875 39.6875 41.40625 40.796875 
C 43.09375 40.796875 46.59375 40.796875 50.703125 39.6875 
C 51.09375 39.484375 51.796875 39.28125 52.09375 39.28125 
C 52.90625 39.28125 53.40625 39.890625 53.40625 40.59375 
C 53.40625 40.984375 52.90625 43.390625 52.703125 44.390625 
C 52.296875 46.796875 52.296875 47 50.5 47 
C 47.40625 47 42.40625 45.796875 38.59375 43.484375 
C 33.90625 46.59375 28.703125 47 24.40625 47 
C 20.203125 47 4.296875 47 4.296875 30.4375 
C 4.296875 26.421875 5.40625 21.390625 9.203125 18.09375 
C 6.5 14.390625 6.5 10.28125 6.5 9.75 
C 6.5 7.796875 7.09375 4.5 9.203125 1.796875 
C 7.703125 1.1875 2.5 -0.609375 2.5 -7.046875 
C 2.5 -10.171875 4 -15.40625 10.296875 -18.3125 
C 16 -20.90625 22.703125 -21 27.40625 -21 
C 33.296875 -21 52.40625 -21 52.40625 -6.75 
C 52.40625 8.890625 38.296875 8.890625 24.796875 8.890625 
z
M 24.40625 21 
C 17.40625 21 17.09375 24.8125 17.09375 30.34375 
C 17.09375 35.875 17.40625 39.796875 24.40625 39.796875 
C 31.40625 39.796875 31.703125 35.96875 31.703125 30.4375 
C 31.703125 24.90625 31.40625 21 24.40625 21 
z
M 29.796875 -2 
C 37.90625 -2 42.09375 -3.421875 42.09375 -7.046875 
C 42.09375 -13.8125 30.703125 -13.8125 27.5 -13.8125 
C 23.5 -13.8125 12.796875 -13.8125 12.796875 -6.75 
C 12.796875 -2 15.90625 -2 18.203125 -2 
z
" id="CMSSBX10-103"/>
    </defs>
    <g style="fill:#262626;" transform="translate(697.987648 33.6)scale(0.21 -0.21)">
     <use transform="scale(0.996264)" xlink:href="#CMSSBX10-66"/>
     <use transform="translate(73.059766 0)scale(0.996264)" xlink:href="#CMSSBX10-114"/>
     <use transform="translate(110.143176 0)scale(0.996264)" xlink:href="#CMSSBX10-105"/>
     <use transform="translate(135.603395 0)scale(0.996264)" xlink:href="#CMSSBX10-100"/>
     <use transform="translate(191.505183 0)scale(0.996264)" xlink:href="#CMSSBX10-103"/>
     <use transform="translate(246.300008 0)scale(0.996264)" xlink:href="#CMSSBX10-101"/>
     <use transform="translate(297.220461 0)scale(0.996264)" xlink:href="#CMSSBX10-71"/>
     <use transform="translate(370.280227 0)scale(0.996264)" xlink:href="#CMSSBX10-67"/>
    </g>
   </g>
   <g id="patch_62">
    <path d="M 832.449723 33.6 
L 874.449723 33.6 
L 874.449723 18.9 
L 832.449723 18.9 
z
" style="fill:#808080;stroke:#ffffff;stroke-linejoin:miter;"/>
   </g>
   <g id="text_35">
    <!-- \textbf{G1} -->
    <defs>
     <path d="M 35.5 67.140625 
C 35.5 69.078125 35.5 72 31.09375 72 
C 29.09375 72 28.703125 71.796875 27.5 70.59375 
C 25.703125 68.96875 21.90625 65.203125 12 65 
C 10.203125 65 7.59375 64.296875 7.59375 61.390625 
C 7.59375 57.78125 11.09375 57.78125 12.40625 57.78125 
C 15.40625 57.78125 18.90625 58.296875 21.796875 59.09375 
L 21.796875 7.1875 
L 14 7.1875 
C 12.703125 7.1875 9.203125 7.1875 9.203125 3.59375 
C 9.203125 0 12.703125 0 14 0 
L 42.5 0 
C 43.59375 0 47.296875 0 47.296875 3.59375 
C 47.296875 7.1875 43.59375 7.1875 42.5 7.1875 
L 35.5 7.1875 
z
" id="CMSSBX10-49"/>
    </defs>
    <g style="fill:#262626;" transform="translate(891.249723 33.6)scale(0.21 -0.21)">
     <use transform="scale(0.996264)" xlink:href="#CMSSBX10-71"/>
     <use transform="translate(73.059766 0)scale(0.996264)" xlink:href="#CMSSBX10-49"/>
    </g>
   </g>
   <g id="patch_63">
    <path d="M 960.099187 33.6 
L 1002.099187 33.6 
L 1002.099187 18.9 
L 960.099187 18.9 
z
" style="fill:#ff8c00;stroke:#ffffff;stroke-linejoin:miter;"/>
   </g>
   <g id="text_36">
    <!-- \textbf{Parallel} -->
    <g style="fill:#262626;" transform="translate(1018.899187 33.6)scale(0.21 -0.21)">
     <use transform="scale(0.996264)" xlink:href="#CMSSBX10-80"/>
     <use transform="translate(66.971452 0)scale(0.996264)" xlink:href="#CMSSBX10-97"/>
     <use transform="translate(116.23149 0)scale(0.996264)" xlink:href="#CMSSBX10-114"/>
     <use transform="translate(153.314901 0)scale(0.996264)" xlink:href="#CMSSBX10-97"/>
     <use transform="translate(205.619096 0)scale(0.996264)" xlink:href="#CMSSBX10-108"/>
     <use transform="translate(231.079314 0)scale(0.996264)" xlink:href="#CMSSBX10-108"/>
     <use transform="translate(256.539533 0)scale(0.996264)" xlink:href="#CMSSBX10-101"/>
     <use transform="translate(307.459986 0)scale(0.996264)" xlink:href="#CMSSBX10-108"/>
    </g>
   </g>
  </g>
 </g>
 <defs>
  <clipPath id="pfdd1e63322">
   <rect height="358.02" width="776.848696" x="86.4" y="81.9"/>
  </clipPath>
  <clipPath id="pf939b84ed5">
   <rect height="358.02" width="776.848696" x="933.871304" y="81.9"/>
  </clipPath>
 </defs>
</svg>
