<?xml version="1.0" encoding="utf-8" standalone="no"?>
<!DOCTYPE svg PUBLIC "-//W3C//DTD SVG 1.1//EN"
  "http://www.w3.org/Graphics/SVG/1.1/DTD/svg11.dtd">
<!-- Created with matplotlib (https://matplotlib.org/) -->
<svg height="432pt" version="1.1" viewBox="0 0 864 432" width="864pt" xmlns="http://www.w3.org/2000/svg" xmlns:xlink="http://www.w3.org/1999/xlink">
 <defs>
  <style type="text/css">
*{stroke-linecap:butt;stroke-linejoin:round;}
  </style>
 </defs>
 <g id="figure_1">
  <g id="patch_1">
   <path d="M 0 432 
L 864 432 
L 864 0 
L 0 0 
z
" style="fill:#ffffff;"/>
  </g>
  <g id="axes_1">
   <g id="patch_2">
    <path d="M 172.8 397.44 
L 691.2 397.44 
L 691.2 64.8 
L 172.8 64.8 
z
" style="fill:#ffffff;"/>
   </g>
   <g id="matplotlib.axis_1">
    <g id="xtick_1">
     <g id="text_1">
      <!-- \textbf{GMM} -->
      <defs>
       <path d="M 66 31.1875 
C 66 31.59375 65.703125 32.5 64.796875 32.5 
L 44.296875 32.5 
C 43.5 32.5 42.796875 32.296875 42.796875 31.09375 
L 42.796875 24 
C 42.796875 23.390625 43.296875 23 43.90625 23 
L 52.296875 23 
L 52.296875 10.09375 
C 51.40625 9.5 44.703125 8.890625 43.203125 8.890625 
C 26.40625 8.890625 20.90625 19.46875 20.90625 34.921875 
C 20.90625 50.046875 26.296875 60.984375 42.59375 60.984375 
C 51.09375 60.984375 55.203125 58.859375 61.09375 53.28125 
C 61.40625 52.984375 61.703125 52.875 62 52.875 
C 62.5 52.875 63 53.28125 63.203125 54.203125 
L 65 64.484375 
C 65.09375 64.984375 65.203125 65.59375 64.296875 66.09375 
C 61.296875 67.6875 53.90625 71 43.203125 71 
C 16.703125 71 6.203125 57.4375 6.203125 34.921875 
C 6.203125 10.09375 19.296875 -1 42.59375 -1 
C 53.203125 -1 63.203125 2.296875 66 4.59375 
z
" id="CMSSBX10-71"/>
       <path d="M 55.5 32.5 
C 53.40625 27.4375 49.703125 18.296875 48.90625 14.8125 
L 48.796875 14.8125 
C 47.90625 18.390625 43.796875 28.234375 41.703125 33.5 
L 28.90625 64.90625 
C 27.203125 69 24 69 22.203125 69 
L 13.90625 69 
C 10.296875 69 9.09375 67.890625 9.09375 64.203125 
L 9.09375 4.78125 
C 9.09375 1.1875 10.203125 0 13.90625 0 
L 16.59375 0 
C 20.40625 0 21.40625 1.296875 21.40625 4.78125 
L 21.40625 56.15625 
L 21.5 56.15625 
C 22.59375 51.6875 27.09375 40.65625 29.5 34.78125 
L 41.09375 6.46875 
C 42.90625 2.1875 45.296875 2.1875 48.703125 2.1875 
C 52.09375 2.1875 54.5 2.1875 56.296875 6.46875 
L 69.09375 37.671875 
C 70.09375 40.0625 75.5 53.578125 76.203125 56.15625 
L 76.296875 56.15625 
L 76.296875 4.78125 
C 76.296875 1.59375 77 0 81.09375 0 
L 83.796875 0 
C 87.59375 0 88.59375 1.296875 88.59375 4.78125 
L 88.59375 64.203125 
C 88.59375 67.390625 87.90625 69 83.796875 69 
L 75.40625 69 
C 72.90625 69 70.40625 68.796875 68.703125 64.703125 
z
" id="CMSSBX10-77"/>
      </defs>
      <g style="fill:#262626;" transform="translate(226.645675 421.044405)scale(0.24 -0.24)">
       <use transform="scale(0.996264)" xlink:href="#CMSSBX10-71"/>
       <use transform="translate(73.059766 0)scale(0.996264)" xlink:href="#CMSSBX10-77"/>
       <use transform="translate(170.472788 0)scale(0.996264)" xlink:href="#CMSSBX10-77"/>
      </g>
     </g>
    </g>
    <g id="xtick_2">
     <g id="text_2">
      <!-- \textbf{NW} -->
      <defs>
       <path d="M 30.296875 65 
C 28.203125 69 25.203125 69 23.203125 69 
L 13.90625 69 
C 10.296875 69 9.09375 67.890625 9.09375 64.203125 
L 9.09375 4.78125 
C 9.09375 1.1875 10.203125 0 13.90625 0 
L 16.59375 0 
C 20.40625 0 21.40625 1.296875 21.40625 4.78125 
L 21.40625 56.953125 
L 21.5 56.953125 
L 49 3.984375 
C 51.09375 0 54.09375 0 56.09375 0 
L 65.40625 0 
C 69.203125 0 70.203125 1.296875 70.203125 4.78125 
L 70.203125 64.203125 
C 70.203125 67.390625 69.5 69 65.40625 69 
L 62.703125 69 
C 58.90625 69 57.90625 67.6875 57.90625 64.203125 
L 57.90625 12.03125 
L 57.796875 12.03125 
z
" id="CMSSBX10-78"/>
       <path d="M 101 64.203125 
C 101.40625 65.59375 101.40625 66 101.40625 66.09375 
C 101.40625 69 98.703125 69 97.296875 69 
L 95.203125 69 
C 93.203125 69 90.40625 69 89.203125 64.609375 
L 78.59375 25.453125 
C 77.203125 20.375 76.296875 17.09375 75.40625 12.71875 
L 75.296875 12.71875 
C 74.796875 15.40625 74.796875 15.609375 72.40625 24.359375 
L 61.59375 64.609375 
C 60.5 68.484375 58.5 69 55.59375 69 
L 49 69 
C 46.90625 69 44.09375 69 42.90625 64.609375 
L 34.09375 32 
L 31.59375 22.171875 
C 30.5 17.5 29.703125 14.3125 29.5 12.71875 
L 29.40625 12.71875 
C 28.59375 17.890625 26.203125 26.640625 24.5 32.90625 
L 15.90625 64.703125 
C 14.703125 69 11.796875 69 9.90625 69 
L 6.5 69 
C 5.09375 69 2.40625 69 2.40625 66.09375 
C 2.40625 66 2.40625 65.59375 2.796875 64.203125 
L 19.203125 4.171875 
C 20.296875 0 23.09375 0 25.203125 0 
L 31.796875 0 
C 33.90625 0 36.703125 0 37.90625 4.578125 
L 48.40625 43.4375 
C 49.90625 48.796875 50.59375 51.578125 51.59375 56.359375 
L 51.703125 56.359375 
C 52.90625 50.59375 53.5 48.109375 55.296875 41.640625 
L 65.5 4.171875 
C 66.59375 0 69.40625 0 71.40625 0 
L 78.59375 0 
C 80.703125 0 83.5 0 84.59375 4.171875 
z
" id="CMSSBX10-87"/>
      </defs>
      <g style="fill:#262626;" transform="translate(359.282542 421.044405)scale(0.24 -0.24)">
       <use transform="scale(0.996264)" xlink:href="#CMSSBX10-78"/>
       <use transform="translate(79.14808 0)scale(0.996264)" xlink:href="#CMSSBX10-87"/>
      </g>
     </g>
    </g>
    <g id="xtick_3">
     <g id="text_3">
      <!-- \textbf{KM} -->
      <defs>
       <path d="M 42.09375 40.25 
L 68.40625 64.796875 
C 69.59375 65.890625 69.59375 66.484375 69.59375 66.890625 
C 69.59375 69 67.59375 69 66.203125 69 
L 60.09375 69 
C 58.40625 69 56.40625 69 54.296875 66.984375 
L 22.09375 36.78125 
L 22.09375 64.203125 
C 22.09375 67.390625 21.40625 69 17.296875 69 
L 13.90625 69 
C 10.296875 69 9.09375 67.890625 9.09375 64.203125 
L 9.09375 4.78125 
C 9.09375 1.1875 10.203125 0 13.90625 0 
L 17.296875 0 
C 21.09375 0 22.09375 1.296875 22.09375 4.78125 
L 22.09375 21.46875 
L 33.203125 31.90625 
L 55.59375 2.09375 
C 57.203125 0 58.703125 0 60.59375 0 
L 66.59375 0 
C 68.703125 0 70.09375 0 70.09375 2.890625 
z
" id="CMSSBX10-75"/>
      </defs>
      <g style="fill:#262626;" transform="translate(482.78694 421.044405)scale(0.24 -0.24)">
       <use transform="scale(0.996264)" xlink:href="#CMSSBX10-75"/>
       <use transform="translate(76.103923 0)scale(0.996264)" xlink:href="#CMSSBX10-77"/>
      </g>
     </g>
    </g>
    <g id="xtick_4">
     <g id="text_4">
      <!-- \textbf{SVM} -->
      <defs>
       <path d="M 27 44.421875 
C 24.796875 44.921875 18.59375 47.234375 18.59375 52.953125 
C 18.59375 61.484375 27.09375 61.6875 30.5 61.6875 
C 36.09375 61.6875 41.09375 60.390625 46 55.5625 
C 47.59375 54.0625 47.703125 53.953125 48.09375 53.953125 
C 48.703125 53.953125 49.203125 54.265625 49.5 55.765625 
L 51 64.484375 
C 51.203125 65.296875 51.203125 65.484375 51.203125 65.796875 
C 51.203125 66.59375 51.09375 66.6875 48.59375 67.984375 
C 41.5 71.484375 35.59375 72 30.5 72 
C 21.59375 72 6.09375 69.890625 6.09375 51.15625 
C 6.09375 44.015625 9.796875 39.40625 11.703125 37.40625 
C 16.796875 32.171875 21.5 31.171875 29.296875 29.375 
C 34.90625 28.0625 37.09375 27.5625 39.296875 25.546875 
C 40.296875 24.546875 42.40625 22.4375 42.40625 18.625 
C 42.40625 9.1875 33.796875 8.890625 30.5 8.890625 
C 22.09375 8.890625 14.796875 12.3125 9.796875 16.828125 
C 8.59375 18.03125 8.40625 18.03125 8 18.03125 
C 7.40625 18.03125 6.90625 17.71875 6.59375 16.21875 
L 5.09375 7.5 
C 4.90625 6.6875 4.90625 6.5 4.90625 6.1875 
C 4.90625 4.09375 15.296875 0.5 15.796875 0.296875 
C 22.5 -1.8125 27.90625 -2 30.5 -2 
C 45.5 -2 54.90625 4.6875 54.90625 20.234375 
C 54.90625 31.484375 46.59375 39.90625 36.59375 42.21875 
z
" id="CMSSBX10-83"/>
       <path d="M 70 64.5 
C 70.40625 65.703125 70.5 65.796875 70.5 66.296875 
C 70.5 69 68 69 66.59375 69 
L 62.703125 69 
C 60.59375 69 57.703125 69 56.09375 64.609375 
L 42.59375 27.734375 
L 37.40625 12.421875 
C 37.296875 12.71875 36.203125 16.203125 34.703125 20.28125 
L 18.5 64.703125 
C 16.90625 69 14.09375 69 12 69 
L 6.59375 69 
C 5.203125 69 2.703125 69 2.703125 66.296875 
C 2.703125 65.796875 2.796875 65.703125 3.203125 64.5 
L 25.59375 4.171875 
C 27.09375 0 30 0 32 0 
L 41.203125 0 
C 43.296875 0 46.09375 0 47.703125 4.375 
z
" id="CMSSBX10-86"/>
      </defs>
      <g style="fill:#262626;" transform="translate(598.254762 421.044405)scale(0.24 -0.24)">
       <use transform="scale(0.996264)" xlink:href="#CMSSBX10-83"/>
       <use transform="translate(60.883138 0)scale(0.996264)" xlink:href="#CMSSBX10-86"/>
       <use transform="translate(133.942905 0)scale(0.996264)" xlink:href="#CMSSBX10-77"/>
      </g>
     </g>
    </g>
   </g>
   <g id="matplotlib.axis_2">
    <g id="ytick_1">
     <g id="text_5">
      <!-- $\mathdefault{0.0}$ -->
      <defs>
       <path d="M 42 31.84375 
C 42 37.96875 41.90625 48.421875 37.703125 56.453125 
C 34 63.484375 28.09375 66 22.90625 66 
C 18.09375 66 12 63.78125 8.203125 56.5625 
C 4.203125 49.015625 3.796875 39.671875 3.796875 31.84375 
C 3.796875 26.109375 3.90625 17.375 7 9.734375 
C 11.296875 -0.609375 19 -2 22.90625 -2 
C 27.5 -2 34.5 -0.109375 38.59375 9.4375 
C 41.59375 16.375 42 24.5 42 31.84375 
z
M 22.90625 -0.40625 
C 16.5 -0.40625 12.703125 5.125 11.296875 12.75 
C 10.203125 18.6875 10.203125 27.328125 10.203125 32.953125 
C 10.203125 40.6875 10.203125 47.109375 11.5 53.234375 
C 13.40625 61.78125 19 64.390625 22.90625 64.390625 
C 27 64.390625 32.296875 61.671875 34.203125 53.4375 
C 35.5 47.71875 35.59375 40.984375 35.59375 32.953125 
C 35.59375 26.421875 35.59375 18.375 34.40625 12.453125 
C 32.296875 1.5 26.40625 -0.40625 22.90625 -0.40625 
z
" id="CMR17-48"/>
       <path d="M 18.40625 4.796875 
C 18.40625 7.6875 16 9.6875 13.59375 9.6875 
C 10.703125 9.6875 8.703125 7.296875 8.703125 4.890625 
C 8.703125 2 11.09375 0 13.5 0 
C 16.40625 0 18.40625 2.390625 18.40625 4.796875 
z
" id="CMMI12-58"/>
      </defs>
      <g style="fill:#262626;" transform="translate(142.104374 404.358498)scale(0.2 -0.2)">
       <use transform="scale(0.996264)" xlink:href="#CMR17-48"/>
       <use transform="translate(45.690477 0)scale(0.996264)" xlink:href="#CMMI12-58"/>
       <use transform="translate(72.787654 0)scale(0.996264)" xlink:href="#CMR17-48"/>
      </g>
     </g>
    </g>
    <g id="ytick_2">
     <g id="text_6">
      <!-- $\mathdefault{0.2}$ -->
      <defs>
       <path d="M 41.703125 15.46875 
L 39.90625 15.46875 
C 38.90625 8.390625 38.09375 7.1875 37.703125 6.59375 
C 37.203125 5.796875 30 5.796875 28.59375 5.796875 
L 9.40625 5.796875 
C 13 9.6875 20 16.765625 28.5 24.9375 
C 34.59375 30.71875 41.703125 37.5 41.703125 47.390625 
C 41.703125 59.1875 32.296875 66 21.796875 66 
C 10.796875 66 4.09375 56.296875 4.09375 47.296875 
C 4.09375 43.390625 7 42.890625 8.203125 42.890625 
C 9.203125 42.890625 12.203125 43.484375 12.203125 46.984375 
C 12.203125 50.09375 9.59375 51 8.203125 51 
C 7.59375 51 7 50.890625 6.59375 50.6875 
C 8.5 59.1875 14.296875 63.390625 20.40625 63.390625 
C 29.09375 63.390625 34.796875 56.5 34.796875 47.390625 
C 34.796875 38.703125 29.703125 31.21875 24 24.734375 
L 4.09375 2.296875 
L 4.09375 0 
L 39.296875 0 
z
" id="CMR17-50"/>
      </defs>
      <g style="fill:#262626;" transform="translate(142.104374 360.006498)scale(0.2 -0.2)">
       <use transform="scale(0.996264)" xlink:href="#CMR17-48"/>
       <use transform="translate(45.690477 0)scale(0.996264)" xlink:href="#CMMI12-58"/>
       <use transform="translate(72.787654 0)scale(0.996264)" xlink:href="#CMR17-50"/>
      </g>
     </g>
    </g>
    <g id="ytick_3">
     <g id="text_7">
      <!-- $\mathdefault{0.4}$ -->
      <defs>
       <path d="M 33.59375 64.796875 
C 33.59375 66.890625 33.5 67 31.703125 67 
L 2 19.59375 
L 2 17 
L 27.796875 17 
L 27.796875 7.1875 
C 27.796875 3.59375 27.59375 2.59375 20.59375 2.59375 
L 18.703125 2.59375 
L 18.703125 0 
C 21.90625 0.1875 27.296875 0.1875 30.703125 0.1875 
C 34.09375 0.1875 39.5 0.1875 42.703125 0 
L 42.703125 2.59375 
L 40.796875 2.59375 
C 33.796875 2.59375 33.59375 3.59375 33.59375 7.1875 
L 33.59375 17 
L 43.796875 17 
L 43.796875 19.59375 
L 33.59375 19.59375 
z
M 28.09375 58.171875 
L 28.09375 19.59375 
L 4 19.59375 
z
" id="CMR17-52"/>
      </defs>
      <g style="fill:#262626;" transform="translate(142.104374 315.654498)scale(0.2 -0.2)">
       <use transform="scale(0.996264)" xlink:href="#CMR17-48"/>
       <use transform="translate(45.690477 0)scale(0.996264)" xlink:href="#CMMI12-58"/>
       <use transform="translate(72.787654 0)scale(0.996264)" xlink:href="#CMR17-52"/>
      </g>
     </g>
    </g>
    <g id="ytick_4">
     <g id="text_8">
      <!-- $\mathdefault{0.6}$ -->
      <defs>
       <path d="M 10.59375 34.34375 
C 10.59375 58 21.796875 63.6875 28.296875 63.6875 
C 30.40625 63.6875 35.5 63.265625 37.5 59.09375 
C 35.90625 59.09375 32.90625 59.09375 32.90625 55.59375 
C 32.90625 52.890625 35.09375 52 36.5 52 
C 37.40625 52 40.09375 52.390625 40.09375 55.796875 
C 40.09375 62.296875 35.09375 66 28.203125 66 
C 16.296875 66 3.796875 53.296875 3.796875 31.421875 
C 3.796875 4.015625 15.09375 -2 23.09375 -2 
C 32.796875 -2 42 6.734375 42 20.234375 
C 42 32.828125 33.90625 42 23.703125 42 
C 17.59375 42 13.09375 37.96875 10.59375 30.921875 
z
M 23.09375 0.390625 
C 10.796875 0.390625 10.796875 18.9375 10.796875 22.65625 
C 10.796875 29.90625 14.203125 40.390625 23.5 40.390625 
C 25.203125 40.390625 30.09375 40.390625 33.40625 33.4375 
C 35.203125 29.515625 35.203125 25.375 35.203125 20.34375 
C 35.203125 14.90625 35.203125 10.875 33.09375 6.84375 
C 30.90625 2.703125 27.703125 0.390625 23.09375 0.390625 
z
" id="CMR17-54"/>
      </defs>
      <g style="fill:#262626;" transform="translate(142.104374 271.302498)scale(0.2 -0.2)">
       <use transform="scale(0.996264)" xlink:href="#CMR17-48"/>
       <use transform="translate(45.690477 0)scale(0.996264)" xlink:href="#CMMI12-58"/>
       <use transform="translate(72.787654 0)scale(0.996264)" xlink:href="#CMR17-54"/>
      </g>
     </g>
    </g>
    <g id="ytick_5">
     <g id="text_9">
      <!-- $\mathdefault{0.8}$ -->
      <defs>
       <path d="M 27.203125 35.765625 
C 33.5 38.96875 39.90625 43.796875 39.90625 51.53125 
C 39.90625 60.6875 31.09375 66 23 66 
C 13.90625 66 5.90625 59.375 5.90625 50.234375 
C 5.90625 47.71875 6.5 43.390625 10.40625 39.578125 
C 11.40625 38.578125 15.59375 35.5625 18.296875 33.65625 
C 13.796875 31.34375 3.296875 25.8125 3.296875 14.765625 
C 3.296875 4.40625 13.09375 -2 22.796875 -2 
C 33.5 -2 42.5 5.71875 42.5 15.96875 
C 42.5 25.109375 36.40625 29.328125 32.40625 32.046875 
z
M 14.09375 44.609375 
C 13.296875 45.109375 9.296875 48.21875 9.296875 52.9375 
C 9.296875 59.078125 15.59375 63.6875 22.796875 63.6875 
C 30.703125 63.6875 36.5 58.0625 36.5 51.53125 
C 36.5 42.1875 26.09375 36.859375 25.59375 36.859375 
C 25.5 36.859375 25.40625 36.859375 24.59375 37.46875 
z
M 32.5 24 
C 34 22.90625 38.796875 19.578125 38.796875 13.453125 
C 38.796875 6.015625 31.40625 0.390625 23 0.390625 
C 13.90625 0.390625 7 6.921875 7 14.859375 
C 7 22.796875 13.09375 29.4375 20 32.546875 
z
" id="CMR17-56"/>
      </defs>
      <g style="fill:#262626;" transform="translate(142.104374 226.950498)scale(0.2 -0.2)">
       <use transform="scale(0.996264)" xlink:href="#CMR17-48"/>
       <use transform="translate(45.690477 0)scale(0.996264)" xlink:href="#CMMI12-58"/>
       <use transform="translate(72.787654 0)scale(0.996264)" xlink:href="#CMR17-56"/>
      </g>
     </g>
    </g>
    <g id="ytick_6">
     <g id="text_10">
      <!-- $\mathdefault{1.0}$ -->
      <defs>
       <path d="M 26.59375 63.796875 
C 26.59375 65.890625 26.5 66 25.09375 66 
C 21.203125 61.359375 15.296875 59.890625 9.703125 59.6875 
C 9.40625 59.6875 8.90625 59.6875 8.796875 59.5 
C 8.703125 59.296875 8.703125 59.09375 8.703125 57 
C 11.796875 57 17 57.59375 21 59.984375 
L 21 7.296875 
C 21 3.796875 20.796875 2.59375 12.203125 2.59375 
L 9.203125 2.59375 
L 9.203125 0 
C 14 0.09375 19 0.1875 23.796875 0.1875 
C 28.59375 0.1875 33.59375 0.09375 38.40625 0 
L 38.40625 2.59375 
L 35.40625 2.59375 
C 26.796875 2.59375 26.59375 3.6875 26.59375 7.296875 
z
" id="CMR17-49"/>
      </defs>
      <g style="fill:#262626;" transform="translate(142.104374 182.598498)scale(0.2 -0.2)">
       <use transform="scale(0.996264)" xlink:href="#CMR17-49"/>
       <use transform="translate(45.690477 0)scale(0.996264)" xlink:href="#CMMI12-58"/>
       <use transform="translate(72.787654 0)scale(0.996264)" xlink:href="#CMR17-48"/>
      </g>
     </g>
    </g>
    <g id="ytick_7">
     <g id="text_11">
      <!-- $\mathdefault{1.2}$ -->
      <g style="fill:#262626;" transform="translate(142.104374 138.246498)scale(0.2 -0.2)">
       <use transform="scale(0.996264)" xlink:href="#CMR17-49"/>
       <use transform="translate(45.690477 0)scale(0.996264)" xlink:href="#CMMI12-58"/>
       <use transform="translate(72.787654 0)scale(0.996264)" xlink:href="#CMR17-50"/>
      </g>
     </g>
    </g>
    <g id="ytick_8">
     <g id="text_12">
      <!-- $\mathdefault{1.4}$ -->
      <g style="fill:#262626;" transform="translate(142.104374 93.894498)scale(0.2 -0.2)">
       <use transform="scale(0.996264)" xlink:href="#CMR17-49"/>
       <use transform="translate(45.690477 0)scale(0.996264)" xlink:href="#CMMI12-58"/>
       <use transform="translate(72.787654 0)scale(0.996264)" xlink:href="#CMR17-52"/>
      </g>
     </g>
    </g>
    <g id="text_13">
     <!-- \textbf{Normalized execution time} -->
     <defs>
      <path d="M 51.796875 22.78125 
C 51.796875 39.375 43.796875 48 27.5 48 
C 10.796875 48 3.09375 39.0625 3.09375 22.78125 
C 3.09375 6.296875 11.703125 -1 27.40625 -1 
C 43.09375 -1 51.796875 6.1875 51.796875 22.78125 
z
M 27.5 6.796875 
C 16.703125 6.796875 16.703125 15.90625 16.703125 24 
C 16.703125 31.78125 16.703125 40.796875 27.40625 40.796875 
C 38.203125 40.796875 38.203125 31.890625 38.203125 24 
C 38.203125 16 38.203125 6.796875 27.5 6.796875 
z
" id="CMSSBX10-111"/>
      <path d="M 19.40625 22.75 
C 19.40625 32.140625 27.296875 36 33.59375 36.390625 
C 35.40625 36.484375 35.59375 36.484375 35.59375 39.09375 
L 35.59375 43.796875 
C 35.59375 45.796875 35.59375 46.5 33.796875 46.5 
C 31 46.5 23.703125 45.484375 19 34.71875 
L 18.90625 34.71875 
L 18.90625 41.1875 
C 18.90625 44.390625 18.203125 46 14.09375 46 
L 10.90625 46 
C 7.296875 46 6.09375 44.890625 6.09375 41.1875 
L 6.09375 4.765625 
C 6.09375 1.1875 7.203125 0 10.90625 0 
L 14.59375 0 
C 18.40625 0 19.40625 1.296875 19.40625 4.765625 
z
" id="CMSSBX10-114"/>
      <path d="M 80.59375 32.171875 
C 80.59375 42.390625 76.203125 46.5 66 46.5 
C 58.90625 46.5 53.40625 43.1875 49.796875 36.625 
C 48.203125 46.1875 39.703125 46.5 35.5 46.5 
C 33.59375 46.5 29.40625 46.5 24.90625 43.1875 
C 21.796875 40.890625 19.796875 37.703125 19.09375 36.21875 
L 19 36.21875 
L 19 41.1875 
C 19 44.390625 18.296875 46 14.203125 46 
L 10.796875 46 
C 7.203125 46 6 44.890625 6 41.1875 
L 6 4.765625 
C 6 1.1875 7.09375 0 10.796875 0 
L 14.796875 0 
C 18.59375 0 19.59375 1.296875 19.59375 4.765625 
L 19.59375 26.625 
C 19.59375 35.53125 25.703125 39.296875 30.59375 39.296875 
C 35.40625 39.296875 36.5 37.21875 36.5 31.96875 
L 36.5 4.765625 
C 36.5 1.1875 37.59375 0 41.296875 0 
L 45.296875 0 
C 49.09375 0 50.09375 1.296875 50.09375 4.765625 
L 50.09375 26.625 
C 50.09375 35.53125 56.203125 39.296875 61.09375 39.296875 
C 65.90625 39.296875 67 37.21875 67 31.96875 
L 67 4.765625 
C 67 1.1875 68.09375 0 71.796875 0 
L 75.796875 0 
C 79.59375 0 80.59375 1.296875 80.59375 4.765625 
z
" id="CMSSBX10-109"/>
      <path d="M 46.40625 31.984375 
C 46.40625 47.890625 31.203125 48 26.203125 48 
C 21.5 48 16.5 47.59375 9.796875 44.796875 
C 7.703125 43.890625 7.203125 43.59375 7.203125 42.484375 
C 7.203125 41.796875 7.796875 35.9375 7.90625 35.125 
C 8 34.515625 8.5 34.015625 9.203125 34.015625 
C 9.703125 34.015625 10 34.3125 10.296875 34.609375 
C 14.59375 39.171875 19.59375 41.390625 25.796875 41.390625 
C 31.203125 41.390625 32.796875 38.0625 32.796875 32.09375 
L 32.796875 28.546875 
C 29.296875 28.546875 3.09375 28.34375 3.09375 13.46875 
C 3.09375 6.390625 8.703125 -1 17.5 -1 
C 20.90625 -1 28.40625 0 33.09375 6.90625 
L 33.09375 4.890625 
C 33.09375 1.6875 33.796875 0.09375 37.90625 0.09375 
L 41.59375 0.09375 
C 45.40625 0.09375 46.40625 1.390625 46.40625 4.890625 
z
M 32.796875 15.59375 
C 32.796875 6.1875 23.296875 6.1875 23 6.1875 
C 18.796875 6.1875 16.09375 9.828125 16.09375 13.671875 
C 16.09375 23.59375 30 24.296875 32.796875 24.40625 
z
" id="CMSSBX10-97"/>
      <path d="M 19.40625 64.203125 
C 19.40625 67.390625 18.703125 69 14.59375 69 
L 10.90625 69 
C 7.296875 69 6.09375 67.890625 6.09375 64.203125 
L 6.09375 4.78125 
C 6.09375 1.1875 7.203125 0 10.90625 0 
L 14.59375 0 
C 18.40625 0 19.40625 1.296875 19.40625 4.78125 
z
" id="CMSSBX10-108"/>
      <path d="M 10.203125 70 
C 7 70 5.40625 69.390625 5.40625 65.390625 
L 5.40625 60.796875 
C 5.40625 57.59375 6.40625 56.296875 10.09375 56.296875 
L 15.296875 56.296875 
C 20.09375 56.296875 20.09375 58.390625 20.09375 63.09375 
C 20.09375 67.890625 20.09375 70 15.296875 70 
z
M 19.40625 41.171875 
C 19.40625 44.390625 18.703125 46 14.59375 46 
L 10.90625 46 
C 7.296875 46 6.09375 44.890625 6.09375 41.171875 
L 6.09375 4.8125 
C 6.09375 1.1875 7.203125 0 10.90625 0 
L 14.59375 0 
C 18.40625 0 19.40625 1.296875 19.40625 4.8125 
z
" id="CMSSBX10-105"/>
      <path d="M 42.59375 38.390625 
C 43.59375 39.6875 43.796875 40.1875 43.796875 41.796875 
C 43.796875 46 40.703125 46 39 46 
L 9.40625 46 
C 8.09375 46 4.59375 46 4.59375 42.1875 
C 4.59375 38.484375 7.796875 38.484375 10.5 38.484375 
C 13.703125 38.484375 21.796875 38.6875 25 38.6875 
L 28.703125 38.6875 
L 4.296875 7.59375 
C 3.296875 6.296875 3.09375 5.796875 3.09375 4.1875 
C 3.09375 0 6.203125 0 7.90625 0 
L 39.296875 0 
C 40.59375 0 44.09375 0 44.09375 3.6875 
C 44.09375 7.5 41 7.5 38.09375 7.5 
C 33.09375 7.5 27.796875 7.296875 22.796875 7.296875 
L 18.203125 7.296875 
z
" id="CMSSBX10-122"/>
      <path d="M 43.09375 21.6875 
C 45.40625 21.6875 47.90625 21.796875 47.90625 26.296875 
C 47.90625 39.375 41.90625 48 27 48 
C 11 48 3.09375 38.96875 3.09375 23.59375 
C 3.09375 7 12.59375 -1 28.296875 -1 
C 32.09375 -1 37.796875 -0.5 44.40625 2.796875 
C 46.59375 3.890625 47.296875 4.1875 47.296875 5.390625 
C 47.296875 6.09375 47 9.03125 46.90625 9.84375 
C 46.5 12.984375 46.40625 13.078125 45.5 13.078125 
C 45.09375 13.078125 44.90625 13.078125 43.796875 12.0625 
C 37.90625 6.90625 31.90625 6.1875 28.703125 6.1875 
C 17.40625 6.1875 16.203125 15.203125 15.90625 21.6875 
z
M 16 27 
C 16.296875 33.1875 18.296875 40.796875 27 40.796875 
C 35 40.796875 36.5 34.90625 36.796875 27 
z
" id="CMSSBX10-101"/>
      <path d="M 49.90625 64.265625 
C 49.90625 67.390625 49.203125 69 45.09375 69 
L 41.40625 69 
C 37.59375 69 36.59375 67.6875 36.59375 64.265625 
L 36.59375 41.984375 
C 32.09375 46.296875 27.09375 47 24 47 
C 3.703125 47 3.703125 27.796875 3.703125 22.890625 
C 3.703125 18.296875 3.703125 -1 23.5 -1 
C 27.703125 -1 32 0.1875 36.296875 4.796875 
C 36.296875 1.09375 37.703125 0.09375 41.09375 0.09375 
L 45.09375 0.09375 
C 48.90625 0.09375 49.90625 1.390625 49.90625 4.890625 
z
M 36.296875 12.59375 
C 36.296875 10.890625 36.296875 10 33.40625 8 
C 30.90625 6.390625 28.59375 6.1875 27.40625 6.1875 
C 17.296875 6.1875 17.296875 15.390625 17.296875 22.890625 
C 17.296875 30.390625 17.296875 39.796875 28.5 39.796875 
C 31.40625 39.796875 34.09375 38.796875 36.296875 36.6875 
z
" id="CMSSBX10-100"/>
      <path d="M 30.09375 23.796875 
L 44.59375 41.6875 
C 45.59375 42.890625 45.59375 43.28125 45.59375 43.796875 
C 45.59375 46 43.59375 46 42.09375 46 
L 37.796875 46 
C 36 46 34.796875 46 33.40625 44.484375 
C 32.90625 43.984375 26.40625 35.25 24.703125 32.9375 
L 16.09375 43.796875 
C 14.40625 45.890625 13.296875 46 11 46 
L 6.59375 46 
C 5.296875 46 3.09375 46 3.09375 43.796875 
C 3.09375 43.09375 3.40625 42.6875 4.09375 41.875 
L 19.203125 23.796875 
L 3.40625 4.203125 
C 2.796875 3.5 2.40625 3 2.40625 2.1875 
C 2.40625 0 4.59375 0 6 0 
L 10.296875 0 
C 13.59375 0 13.796875 0.296875 16 3.59375 
L 24.59375 16.453125 
L 34.796875 2 
C 36.203125 0 37.40625 0 39.5 0 
L 43.90625 0 
C 45.296875 0 47.40625 0 47.40625 2.1875 
C 47.40625 3 47 3.40625 46.296875 4.296875 
z
" id="CMSSBX10-120"/>
      <path d="M 45.703125 5.09375 
C 45.703125 6.1875 45.296875 10.84375 45.09375 12.15625 
C 45.09375 12.453125 44.90625 13.46875 43.90625 13.46875 
C 43.5 13.46875 43.296875 13.46875 42.296875 12.453125 
C 40.59375 10.9375 35.90625 6.796875 27.703125 6.796875 
C 17.296875 6.796875 17.296875 17.015625 17.296875 23.5 
C 17.296875 31.6875 17.796875 40.1875 28 40.1875 
C 34.5 40.1875 37.203125 38.578125 40.796875 35.53125 
C 42 34.421875 42.203125 34.421875 42.59375 34.421875 
C 43.59375 34.421875 43.796875 35.328125 43.90625 35.734375 
C 44.09375 36.546875 45.09375 42.1875 45.09375 42.6875 
C 45.09375 43.59375 44.40625 43.984375 42.703125 44.796875 
C 37.90625 46.984375 34.90625 48 27.90625 48 
C 13 48 3.703125 40.984375 3.703125 23.296875 
C 3.703125 6.5 12.296875 -1 27.40625 -1 
C 30.09375 -1 36.09375 -0.90625 42.796875 2.5 
C 45.59375 4 45.703125 4.09375 45.703125 5.09375 
z
" id="CMSSBX10-99"/>
      <path d="M 50 41.1875 
C 50 44.390625 49.296875 46 45.203125 46 
L 41.203125 46 
C 37.40625 46 36.40625 44.6875 36.40625 41.1875 
L 36.40625 17.421875 
C 36.40625 10.8125 32.90625 5.09375 25.796875 5.09375 
C 20.203125 5.09375 19.59375 6.5 19.59375 11.8125 
L 19.59375 41.1875 
C 19.59375 44.390625 18.90625 46 14.796875 46 
L 10.796875 46 
C 7.203125 46 6 44.890625 6 41.1875 
L 6 12.71875 
C 6 2 11.796875 -1 22.203125 -1 
C 24.90625 -1 32 -1 36.703125 7.5 
L 36.703125 4.890625 
C 36.703125 1.6875 37.40625 0.09375 41.5 0.09375 
L 45.203125 0.09375 
C 49 0.09375 50 1.390625 50 4.890625 
z
" id="CMSSBX10-117"/>
      <path d="M 21.796875 38.796875 
L 30.703125 38.796875 
C 31.90625 38.796875 35.5 38.796875 35.5 42.390625 
C 35.5 46 31.90625 46 30.703125 46 
L 21.796875 46 
L 21.796875 54.21875 
C 21.796875 57.390625 21.09375 59 17 59 
L 13.90625 59 
C 10.296875 59 9.09375 57.890625 9.09375 54.21875 
L 9.09375 46 
L 6.796875 46 
C 5.703125 46 2 46 2 42.390625 
C 2 38.796875 5.59375 38.796875 6.796875 38.796875 
L 8.796875 38.796875 
L 8.796875 13.40625 
C 8.796875 3.296875 12.40625 -1 19.296875 -1 
C 20.203125 -1 24.59375 -1 29.796875 0.59375 
C 31.5 1.09375 37.296875 2.890625 37.296875 4.796875 
C 37.296875 5.09375 37.09375 5.796875 36.5 7.890625 
C 36 9.90625 35.796875 10.5 34.90625 10.5 
C 34.40625 10.5 34.296875 10.40625 33.703125 9.796875 
C 32.59375 9 29.90625 6.796875 25.703125 6.796875 
C 23.296875 6.796875 21.796875 8.5 21.796875 15.125 
z
" id="CMSSBX10-116"/>
      <path d="M 50 32.578125 
C 50 42.890625 45.59375 47 35.40625 47 
C 24.90625 47 20.40625 39.390625 19.09375 36.6875 
L 19 36.6875 
L 19 41.6875 
C 19 44.890625 18.296875 46.484375 14.203125 46.484375 
L 10.796875 46.484375 
C 7.203125 46.484375 6 45.390625 6 41.6875 
L 6 4.796875 
C 6 1.1875 7.09375 0 10.796875 0 
L 14.796875 0 
C 18.59375 0 19.59375 1.296875 19.59375 4.796875 
L 19.59375 26.953125 
C 19.59375 35.6875 25.40625 39.796875 30.59375 39.796875 
C 35.40625 39.796875 36.40625 37.484375 36.40625 32.375 
L 36.40625 4.796875 
C 36.40625 1.59375 37.09375 0 41.203125 0 
L 45.203125 0 
C 49 0 50 1.296875 50 4.796875 
z
" id="CMSSBX10-110"/>
     </defs>
     <g style="fill:#262626;" transform="translate(133.453616 377.588223)rotate(-90)scale(0.24 -0.24)">
      <use transform="scale(0.996264)" xlink:href="#CMSSBX10-78"/>
      <use transform="translate(79.14808 0)scale(0.996264)" xlink:href="#CMSSBX10-111"/>
      <use transform="translate(130.898748 0)scale(0.996264)" xlink:href="#CMSSBX10-114"/>
      <use transform="translate(167.982158 0)scale(0.996264)" xlink:href="#CMSSBX10-109"/>
      <use transform="translate(254.325515 0)scale(0.996264)" xlink:href="#CMSSBX10-97"/>
      <use transform="translate(306.62971 0)scale(0.996264)" xlink:href="#CMSSBX10-108"/>
      <use transform="translate(332.089929 0)scale(0.996264)" xlink:href="#CMSSBX10-105"/>
      <use transform="translate(357.550148 0)scale(0.996264)" xlink:href="#CMSSBX10-122"/>
      <use transform="translate(405.011344 0)scale(0.996264)" xlink:href="#CMSSBX10-101"/>
      <use transform="translate(455.931796 0)scale(0.996264)" xlink:href="#CMSSBX10-100"/>
      <use transform="translate(548.363467 0)scale(0.996264)" xlink:href="#CMSSBX10-101"/>
      <use transform="translate(599.28392 0)scale(0.996264)" xlink:href="#CMSSBX10-120"/>
      <use transform="translate(649.097394 0)scale(0.996264)" xlink:href="#CMSSBX10-101"/>
      <use transform="translate(700.017847 0)scale(0.996264)" xlink:href="#CMSSBX10-99"/>
      <use transform="translate(748.724358 0)scale(0.996264)" xlink:href="#CMSSBX10-117"/>
      <use transform="translate(804.626146 0)scale(0.996264)" xlink:href="#CMSSBX10-116"/>
      <use transform="translate(844.892049 0)scale(0.996264)" xlink:href="#CMSSBX10-105"/>
      <use transform="translate(870.352268 0)scale(0.996264)" xlink:href="#CMSSBX10-111"/>
      <use transform="translate(925.147092 0)scale(0.996264)" xlink:href="#CMSSBX10-110"/>
      <use transform="translate(1017.578763 0)scale(0.996264)" xlink:href="#CMSSBX10-116"/>
      <use transform="translate(1057.844667 0)scale(0.996264)" xlink:href="#CMSSBX10-105"/>
      <use transform="translate(1083.304886 0)scale(0.996264)" xlink:href="#CMSSBX10-109"/>
      <use transform="translate(1169.648243 0)scale(0.996264)" xlink:href="#CMSSBX10-101"/>
     </g>
    </g>
   </g>
   <g id="patch_3">
    <path clip-path="url(#p1a2ee8b02b)" d="M 196.363636 397.44 
L 217.173081 397.44 
L 217.173081 185.825032 
L 196.363636 185.825032 
z
" style="fill:#32cd32;stroke:#ffffff;stroke-linejoin:miter;"/>
   </g>
   <g id="patch_4">
    <path clip-path="url(#p1a2ee8b02b)" d="M 318.772137 397.44 
L 339.581582 397.44 
L 339.581582 190.044 
L 318.772137 190.044 
z
" style="fill:#32cd32;stroke:#ffffff;stroke-linejoin:miter;"/>
   </g>
   <g id="patch_5">
    <path clip-path="url(#p1a2ee8b02b)" d="M 441.180638 397.44 
L 461.990083 397.44 
L 461.990083 189.702422 
L 441.180638 189.702422 
z
" style="fill:#32cd32;stroke:#ffffff;stroke-linejoin:miter;"/>
   </g>
   <g id="patch_6">
    <path clip-path="url(#p1a2ee8b02b)" d="M 563.589138 397.44 
L 584.398583 397.44 
L 584.398583 193.334911 
L 563.589138 193.334911 
z
" style="fill:#32cd32;stroke:#ffffff;stroke-linejoin:miter;"/>
   </g>
   <g id="patch_7">
    <path clip-path="url(#p1a2ee8b02b)" d="M 217.173081 397.44 
L 237.982527 397.44 
L 237.982527 175.68 
L 217.173081 175.68 
z
" style="fill:#1e90ff;stroke:#ffffff;stroke-linejoin:miter;"/>
   </g>
   <g id="patch_8">
    <path clip-path="url(#p1a2ee8b02b)" d="M 339.581582 397.44 
L 360.391027 397.44 
L 360.391027 175.68 
L 339.581582 175.68 
z
" style="fill:#1e90ff;stroke:#ffffff;stroke-linejoin:miter;"/>
   </g>
   <g id="patch_9">
    <path clip-path="url(#p1a2ee8b02b)" d="M 461.990083 397.44 
L 482.799528 397.44 
L 482.799528 175.68 
L 461.990083 175.68 
z
" style="fill:#1e90ff;stroke:#ffffff;stroke-linejoin:miter;"/>
   </g>
   <g id="patch_10">
    <path clip-path="url(#p1a2ee8b02b)" d="M 584.398583 397.44 
L 605.208028 397.44 
L 605.208028 175.68 
L 584.398583 175.68 
z
" style="fill:#1e90ff;stroke:#ffffff;stroke-linejoin:miter;"/>
   </g>
   <g id="patch_11">
    <path clip-path="url(#p1a2ee8b02b)" d="M 258.791972 397.44 
L 279.601417 397.44 
L 279.601417 168.136258 
L 258.791972 168.136258 
z
" style="fill:#808080;stroke:#ffffff;stroke-linejoin:miter;"/>
   </g>
   <g id="patch_12">
    <path clip-path="url(#p1a2ee8b02b)" d="M 381.200472 397.44 
L 402.009917 397.44 
L 402.009917 114.696 
L 381.200472 114.696 
z
" style="fill:#808080;stroke:#ffffff;stroke-linejoin:miter;"/>
   </g>
   <g id="patch_13">
    <path clip-path="url(#p1a2ee8b02b)" d="M 503.608973 397.44 
L 524.418418 397.44 
L 524.418418 170.265937 
L 503.608973 170.265937 
z
" style="fill:#808080;stroke:#ffffff;stroke-linejoin:miter;"/>
   </g>
   <g id="patch_14">
    <path clip-path="url(#p1a2ee8b02b)" d="M 626.017473 397.44 
L 646.826919 397.44 
L 646.826919 172.673894 
L 626.017473 172.673894 
z
" style="fill:#808080;stroke:#ffffff;stroke-linejoin:miter;"/>
   </g>
   <g id="patch_15">
    <path clip-path="url(#p1a2ee8b02b)" d="M 237.982527 397.44 
L 258.791972 397.44 
L 258.791972 154.707097 
L 237.982527 154.707097 
z
" style="fill:#7b68ee;stroke:#ffffff;stroke-linejoin:miter;"/>
   </g>
   <g id="patch_16">
    <path clip-path="url(#p1a2ee8b02b)" d="M 360.391027 397.44 
L 381.200472 397.44 
L 381.200472 166.608 
L 360.391027 166.608 
z
" style="fill:#7b68ee;stroke:#ffffff;stroke-linejoin:miter;"/>
   </g>
   <g id="patch_17">
    <path clip-path="url(#p1a2ee8b02b)" d="M 482.799528 397.44 
L 503.608973 397.44 
L 503.608973 131.122266 
L 482.799528 131.122266 
z
" style="fill:#7b68ee;stroke:#ffffff;stroke-linejoin:miter;"/>
   </g>
   <g id="patch_18">
    <path clip-path="url(#p1a2ee8b02b)" d="M 605.208028 397.44 
L 626.017473 397.44 
L 626.017473 190.185657 
L 605.208028 190.185657 
z
" style="fill:#7b68ee;stroke:#ffffff;stroke-linejoin:miter;"/>
   </g>
   <g id="patch_19">
    <path clip-path="url(#p1a2ee8b02b)" d="M 279.601417 397.44 
L 300.410862 397.44 
L 300.410862 179.679484 
L 279.601417 179.679484 
z
" style="fill:#ff8c00;stroke:#ffffff;stroke-linejoin:miter;"/>
   </g>
   <g id="patch_20">
    <path clip-path="url(#p1a2ee8b02b)" d="M 402.009917 397.44 
L 422.819362 397.44 
L 422.819362 103.356 
L 402.009917 103.356 
z
" style="fill:#ff8c00;stroke:#ffffff;stroke-linejoin:miter;"/>
   </g>
   <g id="patch_21">
    <path clip-path="url(#p1a2ee8b02b)" d="M 524.418418 397.44 
L 545.227863 397.44 
L 545.227863 156.6225 
L 524.418418 156.6225 
z
" style="fill:#ff8c00;stroke:#ffffff;stroke-linejoin:miter;"/>
   </g>
   <g id="patch_22">
    <path clip-path="url(#p1a2ee8b02b)" d="M 646.826919 397.44 
L 667.636364 397.44 
L 667.636364 193.955219 
L 646.826919 193.955219 
z
" style="fill:#ff8c00;stroke:#ffffff;stroke-linejoin:miter;"/>
   </g>
   <g id="line2d_1">
    <path clip-path="url(#p1a2ee8b02b)" d="M 172.8 175.68 
L 691.2 175.68 
" style="fill:none;stroke:#808080;stroke-dasharray:8.14,3.52;stroke-dashoffset:0;stroke-width:2.2;"/>
   </g>
   <g id="patch_23">
    <path d="M 172.8 397.44 
L 172.8 64.8 
" style="fill:none;stroke:#cccccc;stroke-linecap:square;stroke-linejoin:miter;stroke-width:0.8;"/>
   </g>
   <g id="patch_24">
    <path d="M 691.2 397.44 
L 691.2 64.8 
" style="fill:none;stroke:#cccccc;stroke-linecap:square;stroke-linejoin:miter;stroke-width:0.8;"/>
   </g>
   <g id="patch_25">
    <path d="M 172.8 397.44 
L 691.2 397.44 
" style="fill:none;stroke:#cccccc;stroke-linecap:square;stroke-linejoin:miter;stroke-width:0.8;"/>
   </g>
   <g id="patch_26">
    <path d="M 172.8 64.8 
L 691.2 64.8 
" style="fill:none;stroke:#cccccc;stroke-linecap:square;stroke-linejoin:miter;stroke-width:0.8;"/>
   </g>
  </g>
  <g id="legend_1">
   <g id="patch_27">
    <path d="M 80.835052 39.488064 
L 783.164948 39.488064 
Q 786.764948 39.488064 786.764948 35.888064 
L 786.764948 12.6 
Q 786.764948 9 783.164948 9 
L 80.835052 9 
Q 77.235052 9 77.235052 12.6 
L 77.235052 35.888064 
Q 77.235052 39.488064 80.835052 39.488064 
z
" style="fill:#ffffff;opacity:0.8;stroke:#808080;stroke-linejoin:miter;"/>
   </g>
   <g id="patch_28">
    <path d="M 84.435052 28.8 
L 120.435052 28.8 
L 120.435052 16.2 
L 84.435052 16.2 
z
" style="fill:#32cd32;stroke:#ffffff;stroke-linejoin:miter;"/>
   </g>
   <g id="text_14">
    <!-- \textbf{BridgeGC} -->
    <defs>
     <path d="M 13.90625 69 
C 10.296875 69 9.09375 67.890625 9.09375 64.1875 
L 9.09375 4.796875 
C 9.09375 1.1875 10.203125 0 13.90625 0 
L 41.296875 0 
C 48.703125 0 67.09375 1.296875 67.09375 19.171875 
C 67.09375 33 53.203125 35.1875 49.5 35.796875 
C 58.703125 37.890625 64 43.109375 64 50.953125 
C 64 69 42.703125 69 38.5 69 
z
M 23.203125 39.1875 
L 23.203125 60.390625 
L 34.90625 60.390625 
C 38.796875 60.390625 50.40625 60.09375 50.40625 50.640625 
C 50.40625 39.1875 37.296875 39.1875 34.796875 39.1875 
z
M 23.203125 8.59375 
L 23.203125 32 
L 35.796875 32 
C 39.296875 32 53.203125 32 53.203125 19.359375 
C 53.203125 9.28125 42.5 8.59375 37.703125 8.59375 
z
" id="CMSSBX10-66"/>
     <path d="M 20 8.890625 
C 16.40625 8.890625 15 8.890625 13.59375 10.171875 
C 13.203125 10.59375 11.5 12.1875 11.5 14.890625 
C 11.5 15.59375 11.59375 15.796875 11.703125 16.390625 
C 16.40625 13.796875 22.296875 13.796875 24.40625 13.796875 
C 28.59375 13.796875 44.5 13.796875 44.5 30.34375 
C 44.5 36.171875 42.296875 39.6875 41.40625 40.796875 
C 43.09375 40.796875 46.59375 40.796875 50.703125 39.6875 
C 51.09375 39.484375 51.796875 39.28125 52.09375 39.28125 
C 52.90625 39.28125 53.40625 39.890625 53.40625 40.59375 
C 53.40625 40.984375 52.90625 43.390625 52.703125 44.390625 
C 52.296875 46.796875 52.296875 47 50.5 47 
C 47.40625 47 42.40625 45.796875 38.59375 43.484375 
C 33.90625 46.59375 28.703125 47 24.40625 47 
C 20.203125 47 4.296875 47 4.296875 30.4375 
C 4.296875 26.421875 5.40625 21.390625 9.203125 18.09375 
C 6.5 14.390625 6.5 10.28125 6.5 9.75 
C 6.5 7.796875 7.09375 4.5 9.203125 1.796875 
C 7.703125 1.1875 2.5 -0.609375 2.5 -7.046875 
C 2.5 -10.171875 4 -15.40625 10.296875 -18.3125 
C 16 -20.90625 22.703125 -21 27.40625 -21 
C 33.296875 -21 52.40625 -21 52.40625 -6.75 
C 52.40625 8.890625 38.296875 8.890625 24.796875 8.890625 
z
M 24.40625 21 
C 17.40625 21 17.09375 24.8125 17.09375 30.34375 
C 17.09375 35.875 17.40625 39.796875 24.40625 39.796875 
C 31.40625 39.796875 31.703125 35.96875 31.703125 30.4375 
C 31.703125 24.90625 31.40625 21 24.40625 21 
z
M 29.796875 -2 
C 37.90625 -2 42.09375 -3.421875 42.09375 -7.046875 
C 42.09375 -13.8125 30.703125 -13.8125 27.5 -13.8125 
C 23.5 -13.8125 12.796875 -13.8125 12.796875 -6.75 
C 12.796875 -2 15.90625 -2 18.203125 -2 
z
" id="CMSSBX10-103"/>
     <path d="M 64 14.328125 
C 64 15.140625 63.296875 15.546875 62.90625 15.546875 
C 60.5 15.546875 57.59375 9 43.5 9 
C 25.90625 9 20.90625 19.875 20.90625 34.984375 
C 20.90625 50 26.296875 60.890625 42.703125 60.890625 
C 51.59375 60.890625 56.296875 57.359375 59 55.140625 
C 59.59375 54.640625 59.90625 54.234375 60.59375 54.234375 
C 61 54.234375 61.5 54.734375 61.59375 55.140625 
L 63.59375 66.296875 
C 63.703125 66.6875 63.59375 67.09375 62.796875 67.390625 
C 56.90625 69.59375 50.796875 71 43 71 
C 18.59375 71 6.09375 59.078125 6.09375 35.09375 
C 6.09375 10.40625 18.796875 -1 43.09375 -1 
C 51.59375 -1 56.90625 0.1875 64.203125 4.6875 
C 65 5.1875 64.796875 5.890625 64.796875 5.890625 
z
" id="CMSSBX10-67"/>
    </defs>
    <g style="fill:#262626;" transform="translate(134.835052 28.8)scale(0.18 -0.18)">
     <use transform="scale(0.996264)" xlink:href="#CMSSBX10-66"/>
     <use transform="translate(73.059766 0)scale(0.996264)" xlink:href="#CMSSBX10-114"/>
     <use transform="translate(110.143176 0)scale(0.996264)" xlink:href="#CMSSBX10-105"/>
     <use transform="translate(135.603395 0)scale(0.996264)" xlink:href="#CMSSBX10-100"/>
     <use transform="translate(191.505183 0)scale(0.996264)" xlink:href="#CMSSBX10-103"/>
     <use transform="translate(246.300008 0)scale(0.996264)" xlink:href="#CMSSBX10-101"/>
     <use transform="translate(297.220461 0)scale(0.996264)" xlink:href="#CMSSBX10-71"/>
     <use transform="translate(370.280227 0)scale(0.996264)" xlink:href="#CMSSBX10-67"/>
    </g>
   </g>
   <g id="patch_29">
    <path d="M 250.088283 28.8 
L 286.088283 28.8 
L 286.088283 16.2 
L 250.088283 16.2 
z
" style="fill:#1e90ff;stroke:#ffffff;stroke-linejoin:miter;"/>
   </g>
   <g id="text_15">
    <!-- \textbf{ZGC} -->
    <defs>
     <path d="M 60 60.296875 
C 61 61.59375 61 61.796875 61 63.984375 
C 61 66.6875 60.90625 69 56.203125 69 
L 12.40625 69 
C 8.203125 69 7.59375 67.296875 7.59375 64.09375 
C 7.59375 59.1875 9.703125 59.1875 13.703125 59.1875 
C 22.40625 59.1875 31.09375 59.484375 39.796875 59.484375 
L 43.296875 59.484375 
L 7.09375 9.09375 
C 6.09375 7.796875 6.09375 7.59375 6.09375 5.59375 
L 6.09375 4.796875 
C 6.09375 1.1875 7.203125 0 10.90625 0 
L 56.796875 0 
C 60.59375 0 61.59375 1.296875 61.59375 4.796875 
L 61.59375 5.6875 
C 61.59375 10.5 59.296875 10.5 55.90625 10.5 
C 47.09375 10.5 33.203125 10.296875 24 10.09375 
z
" id="CMSSBX10-90"/>
    </defs>
    <g style="fill:#262626;" transform="translate(300.488283 28.8)scale(0.18 -0.18)">
     <use transform="scale(0.996264)" xlink:href="#CMSSBX10-90"/>
     <use transform="translate(66.971452 0)scale(0.996264)" xlink:href="#CMSSBX10-71"/>
     <use transform="translate(140.031218 0)scale(0.996264)" xlink:href="#CMSSBX10-67"/>
    </g>
   </g>
   <g id="patch_30">
    <path d="M 374.296712 28.8 
L 410.296712 28.8 
L 410.296712 16.2 
L 374.296712 16.2 
z
" style="fill:#7b68ee;stroke:#ffffff;stroke-linejoin:miter;"/>
   </g>
   <g id="text_16">
    <!-- \textbf{Shenandoah} -->
    <defs>
     <path d="M 50 32.578125 
C 50 42.890625 45.59375 47 35.40625 47 
C 25.40625 47 20.796875 40.09375 19.40625 37.28125 
L 19.296875 37.28125 
L 19.296875 64.265625 
C 19.296875 67.390625 18.59375 69 14.5 69 
L 10.796875 69 
C 7.203125 69 6 67.890625 6 64.265625 
L 6 4.796875 
C 6 1.1875 7.09375 0 10.796875 0 
L 14.796875 0 
C 18.59375 0 19.59375 1.296875 19.59375 4.796875 
L 19.59375 26.953125 
C 19.59375 35.6875 25.40625 39.796875 30.59375 39.796875 
C 35.40625 39.796875 36.40625 37.484375 36.40625 32.375 
L 36.40625 4.796875 
C 36.40625 1.59375 37.09375 0 41.203125 0 
L 45.203125 0 
C 49 0 50 1.296875 50 4.796875 
z
" id="CMSSBX10-104"/>
    </defs>
    <g style="fill:#262626;" transform="translate(424.696712 28.8)scale(0.18 -0.18)">
     <use transform="scale(0.996264)" xlink:href="#CMSSBX10-83"/>
     <use transform="translate(60.883138 0)scale(0.996264)" xlink:href="#CMSSBX10-104"/>
     <use transform="translate(116.784926 0)scale(0.996264)" xlink:href="#CMSSBX10-101"/>
     <use transform="translate(167.705379 0)scale(0.996264)" xlink:href="#CMSSBX10-110"/>
     <use transform="translate(223.607167 0)scale(0.996264)" xlink:href="#CMSSBX10-97"/>
     <use transform="translate(275.911362 0)scale(0.996264)" xlink:href="#CMSSBX10-110"/>
     <use transform="translate(331.81315 0)scale(0.996264)" xlink:href="#CMSSBX10-100"/>
     <use transform="translate(387.714938 0)scale(0.996264)" xlink:href="#CMSSBX10-111"/>
     <use transform="translate(442.509763 0)scale(0.996264)" xlink:href="#CMSSBX10-97"/>
     <use transform="translate(494.813958 0)scale(0.996264)" xlink:href="#CMSSBX10-104"/>
    </g>
   </g>
   <g id="patch_31">
    <path d="M 559.825513 28.8 
L 595.825513 28.8 
L 595.825513 16.2 
L 559.825513 16.2 
z
" style="fill:#808080;stroke:#ffffff;stroke-linejoin:miter;"/>
   </g>
   <g id="text_17">
    <!-- \textbf{G1} -->
    <defs>
     <path d="M 35.5 67.140625 
C 35.5 69.078125 35.5 72 31.09375 72 
C 29.09375 72 28.703125 71.796875 27.5 70.59375 
C 25.703125 68.96875 21.90625 65.203125 12 65 
C 10.203125 65 7.59375 64.296875 7.59375 61.390625 
C 7.59375 57.78125 11.09375 57.78125 12.40625 57.78125 
C 15.40625 57.78125 18.90625 58.296875 21.796875 59.09375 
L 21.796875 7.1875 
L 14 7.1875 
C 12.703125 7.1875 9.203125 7.1875 9.203125 3.59375 
C 9.203125 0 12.703125 0 14 0 
L 42.5 0 
C 43.59375 0 47.296875 0 47.296875 3.59375 
C 47.296875 7.1875 43.59375 7.1875 42.5 7.1875 
L 35.5 7.1875 
z
" id="CMSSBX10-49"/>
    </defs>
    <g style="fill:#262626;" transform="translate(610.225513 28.8)scale(0.18 -0.18)">
     <use transform="scale(0.996264)" xlink:href="#CMSSBX10-71"/>
     <use transform="translate(73.059766 0)scale(0.996264)" xlink:href="#CMSSBX10-49"/>
    </g>
   </g>
   <g id="patch_32">
    <path d="M 669.239339 28.8 
L 705.239339 28.8 
L 705.239339 16.2 
L 669.239339 16.2 
z
" style="fill:#ff8c00;stroke:#ffffff;stroke-linejoin:miter;"/>
   </g>
   <g id="text_18">
    <!-- \textbf{Parallel} -->
    <defs>
     <path d="M 23.796875 27 
L 39 27 
C 54.703125 27 64.09375 33.59375 64.09375 47.6875 
C 64.09375 62.484375 54.296875 69 38.90625 69 
L 13.90625 69 
C 10.296875 69 9.09375 67.890625 9.09375 64.1875 
L 9.09375 4.8125 
C 9.09375 1.1875 10.203125 0 13.90625 0 
L 19 0 
C 22.796875 0 23.796875 1.296875 23.796875 4.8125 
z
M 35.796875 60.390625 
C 48.90625 60.390625 50.203125 54.53125 50.203125 47.6875 
C 50.203125 41.140625 49.09375 34.890625 35.703125 34.890625 
L 23.5 34.890625 
L 23.5 60.390625 
z
" id="CMSSBX10-80"/>
    </defs>
    <g style="fill:#262626;" transform="translate(719.639339 28.8)scale(0.18 -0.18)">
     <use transform="scale(0.996264)" xlink:href="#CMSSBX10-80"/>
     <use transform="translate(66.971452 0)scale(0.996264)" xlink:href="#CMSSBX10-97"/>
     <use transform="translate(116.23149 0)scale(0.996264)" xlink:href="#CMSSBX10-114"/>
     <use transform="translate(153.314901 0)scale(0.996264)" xlink:href="#CMSSBX10-97"/>
     <use transform="translate(205.619096 0)scale(0.996264)" xlink:href="#CMSSBX10-108"/>
     <use transform="translate(231.079314 0)scale(0.996264)" xlink:href="#CMSSBX10-108"/>
     <use transform="translate(256.539533 0)scale(0.996264)" xlink:href="#CMSSBX10-101"/>
     <use transform="translate(307.459986 0)scale(0.996264)" xlink:href="#CMSSBX10-108"/>
    </g>
   </g>
  </g>
 </g>
 <defs>
  <clipPath id="p1a2ee8b02b">
   <rect height="332.64" width="518.4" x="172.8" y="64.8"/>
  </clipPath>
 </defs>
</svg>
